<svg xmlns="http://www.w3.org/2000/svg" viewBox="0 0 500 500"><g id="freepik--background-complete--inject-41"><path d="M150.46,390.8c-.07.08-.62-.25-1.24-.74s-1.06-1-1-1.05.62.25,1.23.75S150.53,390.72,150.46,390.8Z" style="fill:#e0e0e0"></path><path d="M167.28,365.65a19.29,19.29,0,0,0-.57-7A6.89,6.89,0,0,0,162,353.9c-2.63-.55-5.33,1.11-6.8,3.36s-2,5-2.41,7.62a268.63,268.63,0,0,0-3.3,55.29l10.75,1.51C164.92,402.37,166.43,385.5,167.28,365.65Z" style="fill:#ebebeb"></path><path d="M160.45,353.82s0,.06,0,.17-.1.29-.17.49c-.18.45-.42,1.07-.72,1.85-.15.41-.35.85-.51,1.35s-.34,1-.52,1.63-.39,1.21-.61,1.87l-.55,2.13A93.08,93.08,0,0,0,155.24,374c-.58,4.05-1,8.53-1.26,13.24-.55,9.42-.64,18-.88,24.16-.12,3.09-.22,5.6-.34,7.32-.06.84-.1,1.5-.13,2,0,.21,0,.38,0,.52s0,.17,0,.17a1.15,1.15,0,0,1,0-.17c0-.14,0-.31,0-.52,0-.49,0-1.15.06-2,.07-1.73.14-4.24.22-7.33.17-6.18.21-14.74.76-24.18.3-4.71.7-9.2,1.3-13.26a89.55,89.55,0,0,1,2.17-10.66c.2-.75.4-1.46.58-2.13s.44-1.29.63-1.87.39-1.12.56-1.63.38-.93.54-1.33l.78-1.84.22-.47Z" style="fill:#e0e0e0"></path><path d="M161.45,353.82a7.68,7.68,0,0,1,1.31,2.23,16.4,16.4,0,0,1,1,7c-.28,5.94-.81,14.13-1.52,23.17s-1.5,17.22-2.14,23.13c-.31,2.95-.59,5.34-.79,7l-.24,1.9c0,.2-.06.36-.08.49s0,.17,0,.17v-.17l0-.5c0-.47.1-1.1.17-1.91l.67-7c.57-5.91,1.31-14.09,2-23.13s1.28-17.23,1.63-23.15a16.67,16.67,0,0,0-.85-6.9A15.2,15.2,0,0,0,161.45,353.82Z" style="fill:#e0e0e0"></path><path d="M168.91,381.66a5.94,5.94,0,0,1-2-.53,5.81,5.81,0,0,1-1.91-.89,11.6,11.6,0,0,1,3.95,1.42Z" style="fill:#e0e0e0"></path><path d="M170.2,370.7a6.69,6.69,0,0,1-1.94,1.08,6.54,6.54,0,0,1-2.09.72,13.2,13.2,0,0,1,4-1.8Z" style="fill:#e0e0e0"></path><path d="M169.53,361.75a3.44,3.44,0,0,1-1.6.08c-.88-.06-1.59-.19-1.58-.3a6.77,6.77,0,0,1,3.18.22Z" style="fill:#e0e0e0"></path><path d="M158.43,356c-.09.06-.56-.53-1.05-1.31s-.82-1.46-.73-1.52.56.53,1,1.31S158.52,356,158.43,356Z" style="fill:#e0e0e0"></path><path d="M154.76,361.43a3.2,3.2,0,0,1-1.52.16c-.85,0-1.53-.12-1.52-.23a3.35,3.35,0,0,1,1.52-.16C154.08,361.22,154.77,361.32,154.76,361.43Z" style="fill:#e0e0e0"></path><path d="M152.13,372.25a3.74,3.74,0,0,1-1.61-.44c-.85-.34-1.5-.7-1.46-.8a3.92,3.92,0,0,1,1.61.44C151.51,371.8,152.17,372.15,152.13,372.25Z" style="fill:#e0e0e0"></path><path d="M151.85,381.36c0,.1-.59.32-1.37.48A3,3,0,0,1,149,382c0-.11.59-.32,1.37-.49S151.83,381.25,151.85,381.36Z" style="fill:#e0e0e0"></path><path d="M150.61,396.25c0,.1-.63.3-1.45.45a3.17,3.17,0,0,1-1.52.08c0-.11.63-.31,1.45-.46S150.59,396.14,150.61,396.25Z" style="fill:#e0e0e0"></path><path d="M149.79,404.46c.05.1-.5.48-1.22.86s-1.34.62-1.39.52.5-.48,1.21-.86S149.74,404.37,149.79,404.46Z" style="fill:#e0e0e0"></path><path d="M156.5,413.79c-.09.06-.57-.6-1.06-1.45a4.4,4.4,0,0,1-.72-1.65c.09-.05.56.6,1.06,1.46A4.32,4.32,0,0,1,156.5,413.79Z" style="fill:#e0e0e0"></path><path d="M158.43,398.29c.08.08-.45.71-1.17,1.42s-1.37,1.23-1.45,1.15.46-.71,1.18-1.42A4.7,4.7,0,0,1,158.43,398.29Z" style="fill:#e0e0e0"></path><path d="M158,390.16c-.08.07-.57-.33-1.1-.9s-.88-1.08-.8-1.15.56.32,1.09.89S158.08,390.08,158,390.16Z" style="fill:#e0e0e0"></path><path d="M159.34,379.76c.08.07-.36.69-1,1.38s-1.19,1.2-1.27,1.13.36-.69,1-1.38S159.26,379.69,159.34,379.76Z" style="fill:#e0e0e0"></path><path d="M160.09,372.22c-.08.08-.69-.41-1.37-1.08s-1.17-1.27-1.1-1.34.69.4,1.37,1.07S160.16,372.14,160.09,372.22Z" style="fill:#e0e0e0"></path><path d="M161.56,362a3.8,3.8,0,0,1-.69,1.53c-.47.79-.92,1.38-1,1.33s.21-.74.68-1.53S161.47,362,161.56,362Z" style="fill:#e0e0e0"></path><path d="M164.33,352.57a3.69,3.69,0,0,1-.61,1.53c-.43.8-.85,1.4-.94,1.35s.18-.74.6-1.53S164.24,352.52,164.33,352.57Z" style="fill:#e0e0e0"></path><path d="M167.47,356.87c.05.09-.38.39-1,.67s-1.08.42-1.13.32.39-.39,1-.67S167.43,356.77,167.47,356.87Z" style="fill:#e0e0e0"></path><path d="M167.55,390.8a4.31,4.31,0,0,1-2.11-.51,4.36,4.36,0,0,1-1.82-1.16,9.49,9.49,0,0,1,2,.81A10.57,10.57,0,0,1,167.55,390.8Z" style="fill:#e0e0e0"></path><path d="M166.26,398c0,.1-.62.32-1.44.47s-1.5.21-1.52.1.62-.32,1.44-.47S166.24,397.88,166.26,398Z" style="fill:#e0e0e0"></path><path d="M164.68,410.31a4.15,4.15,0,0,1-1.63-1.43,4.25,4.25,0,0,1-1-1.93,369.84,369.84,0,0,0,2.66,3.36Z" style="fill:#e0e0e0"></path><path d="M147.4,416c-.07-.08.36-.57,1-1.09s1.16-.87,1.23-.79-.37.56-1,1.08S147.46,416,147.4,416Z" style="fill:#e0e0e0"></path><path d="M142.43,389.05c-.7-2.19-2-4.73-4.31-4.77a3.82,3.82,0,0,0-3.23,2.16,8,8,0,0,0-.87,4A103.12,103.12,0,0,0,139,419.05h8.4A99.94,99.94,0,0,0,142.43,389.05Z" style="fill:#ebebeb"></path><path d="M127.24,375.29a9.36,9.36,0,0,0-8.74-7.47c-3.72.65-5.16,4.31-5.6,8.05s.72,7.47,1.87,11.06q5.53,17.28,11.06,34.57l10.44-1.14C133,404.92,131.07,390.61,127.24,375.29Z" style="fill:#ebebeb"></path><path d="M138.12,384.28a7.72,7.72,0,0,0-.71,1.19,7.83,7.83,0,0,0-.4,3.71c.17,1.6.35,3.52.62,5.63s.65,4.42,1.12,6.83c.95,4.83,2,9.16,2.7,12.31.34,1.58.6,2.86.77,3.75.07.4.12.74.17,1a1.41,1.41,0,0,1,0,.36s-.05-.11-.11-.34l-.25-1c-.22-.94-.52-2.19-.89-3.72-.74-3.13-1.85-7.45-2.81-12.29-.47-2.42-.84-4.74-1.1-6.87-.13-1.06-.22-2.07-.3-3s-.18-1.82-.23-2.63a7.65,7.65,0,0,1,.53-3.79A3.3,3.3,0,0,1,138.12,384.28Z" style="fill:#e0e0e0"></path><path d="M118.65,367.53a13.19,13.19,0,0,0-1.27,1.69,12.06,12.06,0,0,0-1.59,5.47,25.28,25.28,0,0,0,1.3,8.41c.91,3.11,1.92,6.52,3,10.1,2.08,7.16,4,13.64,5.35,18.38.65,2.33,1.19,4.23,1.57,5.59.17.63.31,1.13.41,1.52a3.3,3.3,0,0,1,.12.54,3.47,3.47,0,0,1-.19-.52l-.48-1.5c-.41-1.35-1-3.24-1.7-5.55-1.4-4.73-3.33-11.2-5.45-18.35-1-3.58-2-7-3-10.11a25.14,25.14,0,0,1-1.23-8.53,11.75,11.75,0,0,1,1.74-5.53A6.37,6.37,0,0,1,118.65,367.53Z" style="fill:#e0e0e0"></path><path d="M134,419.25a2.31,2.31,0,0,1-.24-.5c-.14-.34-.36-.83-.6-1.47-.49-1.29-1.13-3.18-1.79-5.55s-1.32-5.23-2-8.43-1.27-6.7-2-10.39-1.53-7.16-2.47-10.26a57.1,57.1,0,0,0-3-8,43.18,43.18,0,0,0-2.81-5.08c-.36-.58-.69-1-.88-1.31a2.69,2.69,0,0,1-.3-.47,2.68,2.68,0,0,1,.36.42c.21.29.56.7.94,1.28a37.31,37.31,0,0,1,2.94,5,55.51,55.51,0,0,1,3.14,8.06,104.46,104.46,0,0,1,2.51,10.3c.69,3.68,1.34,7.19,1.94,10.4s1.23,6,1.86,8.42,1.22,4.27,1.68,5.57c.21.65.41,1.14.52,1.49A3.48,3.48,0,0,1,134,419.25Z" style="fill:#e0e0e0"></path><path d="M115,385.2c0,.11-.54.33-1.27.51s-1.34.24-1.36.13.54-.33,1.27-.5S114.93,385.1,115,385.2Z" style="fill:#e0e0e0"></path><path d="M113.85,378.07a4.8,4.8,0,0,1-1.76.19,5,5,0,0,1-1.77-.05,6.12,6.12,0,0,1,3.53-.14Z" style="fill:#e0e0e0"></path><path d="M115,371.56c-.07.08-.64-.29-1.27-.82s-1.09-1-1-1.12.64.29,1.27.83S115.1,371.48,115,371.56Z" style="fill:#e0e0e0"></path><path d="M118.22,365.53c.1,0,.07.53.06,1.15s0,1.12-.13,1.14-.28-.49-.26-1.15S118.12,365.51,118.22,365.53Z" style="fill:#e0e0e0"></path><path d="M124.73,368.37c.09.06-.17.58-.57,1.15s-.8,1-.89.93.17-.57.57-1.15S124.64,368.31,124.73,368.37Z" style="fill:#e0e0e0"></path><path d="M129,375.72c0,.09-.5.41-1.2.7s-1.32.44-1.36.34.5-.41,1.21-.7S128.91,375.62,129,375.72Z" style="fill:#e0e0e0"></path><path d="M131.52,383.27a3.19,3.19,0,0,1-1.66.72,3.15,3.15,0,0,1-1.8.07,6.41,6.41,0,0,1,1.72-.44A7,7,0,0,1,131.52,383.27Z" style="fill:#e0e0e0"></path><path d="M119.75,381.12c-.1,0,0-.55.16-1.16s.43-1.08.53-1,0,.55-.16,1.16S119.85,381.16,119.75,381.12Z" style="fill:#e0e0e0"></path><path d="M121.39,390.61a3.51,3.51,0,0,1,.47-1.57c.36-.83.73-1.46.83-1.42a3.78,3.78,0,0,1-.48,1.57C121.86,390,121.49,390.65,121.39,390.61Z" style="fill:#e0e0e0"></path><path d="M117.33,393.2c0,.1-.7-.08-1.5-.33a4,4,0,0,1-1.43-.58,2.83,2.83,0,0,1,1.54.22C116.76,392.76,117.37,393.11,117.33,393.2Z" style="fill:#e0e0e0"></path><path d="M119.67,400.94c.06.08-.38.51-1,.95s-1.16.72-1.22.63.38-.51,1-.95S119.61,400.85,119.67,400.94Z" style="fill:#e0e0e0"></path><path d="M121.55,408.65c0,.1-.53.32-1.24.5s-1.3.22-1.33.12.53-.33,1.24-.5S121.52,408.54,121.55,408.65Z" style="fill:#e0e0e0"></path><path d="M131.73,389.71c.05.09-.42.47-1.11.73s-1.3.29-1.32.18.53-.3,1.18-.54S131.67,389.62,131.73,389.71Z" style="fill:#e0e0e0"></path><path d="M133.18,401.7c-.05.1-.61-.07-1.26-.38s-1.14-.63-1.1-.72.61.07,1.26.38S133.23,401.61,133.18,401.7Z" style="fill:#e0e0e0"></path><path d="M135.75,410.29a3.93,3.93,0,0,1-1.67-.45c-.88-.34-1.56-.7-1.52-.8a4,4,0,0,1,1.66.44C135.1,409.83,135.79,410.19,135.75,410.29Z" style="fill:#e0e0e0"></path><path d="M122,417c0-.09.63-.56,1.42-1.18s1.41-1.18,1.49-1.1-.43.76-1.25,1.4A3.46,3.46,0,0,1,122,417Z" style="fill:#e0e0e0"></path><path d="M128.75,412.65c-.11,0-.26-.57-.52-1.24s-.54-1.2-.45-1.26.53.4.8,1.12S128.85,412.64,128.75,412.65Z" style="fill:#e0e0e0"></path><path d="M127,402.32c-.07.09-.5-.12-1-.46s-.82-.69-.76-.78.5.12,1,.47S127,402.24,127,402.32Z" style="fill:#e0e0e0"></path><path d="M142.76,386.15c.07.08-.36.51-.95.94s-1.12.72-1.18.63.36-.5,1-.94S142.7,386.06,142.76,386.15Z" style="fill:#e0e0e0"></path><path d="M145.15,392.67a2.35,2.35,0,0,1-1.49.15c-.82-.09-1.45-.37-1.42-.47a4.25,4.25,0,0,1,1.46.09C144.49,392.52,145.14,392.56,145.15,392.67Z" style="fill:#e0e0e0"></path><path d="M134.9,394.13c0,.1-.59.32-1.39.37s-1.45-.08-1.44-.18.64-.15,1.41-.2S134.88,394,134.9,394.13Z" style="fill:#e0e0e0"></path><path d="M135.78,388c0,.1-.63.11-1.32-.2s-1.08-.8-1-.87.55.24,1.17.52S135.8,387.86,135.78,388Z" style="fill:#e0e0e0"></path><path d="M146,399.66c-.06.09-.7-.21-1.43-.67s-1.28-.91-1.23-1,.7.21,1.43.67S146.09,399.57,146,399.66Z" style="fill:#e0e0e0"></path><rect x="116.36" y="417.95" width="54.68" height="9.69" style="fill:#e0e0e0"></rect><polygon points="120.44 425.72 127.09 454.68 159.68 454.68 166.95 425.72 120.44 425.72" style="fill:#e0e0e0"></polygon><path d="M171,427.66c0,.1-12.33.19-27.54.19s-27.54-.09-27.54-.19,12.33-.2,27.54-.2S171,427.55,171,427.66Z" style="fill:#ebebeb"></path><path d="M140.6,394.34c-.09.06-.47-.38-.84-1s-.6-1.12-.51-1.18.47.38.84,1S140.69,394.28,140.6,394.34Z" style="fill:#e0e0e0"></path><path d="M140.62,402.14a3.15,3.15,0,0,1,.28-1.48c.26-.77.55-1.38.65-1.35s0,.7-.28,1.48S140.72,402.17,140.62,402.14Z" style="fill:#e0e0e0"></path><path d="M143.29,410.32c-.1.05-.51-.61-.92-1.46a4,4,0,0,1-.56-1.63,7.82,7.82,0,0,1,1.48,3.09Z" style="fill:#e0e0e0"></path><path d="M137.51,416.91c-.08-.07.25-.58.73-1.14s.94-.95,1-.88-.25.58-.73,1.14S137.59,417,137.51,416.91Z" style="fill:#e0e0e0"></path><path d="M136.3,405c0,.1-.54.1-1.18,0s-1.12-.29-1.1-.39.54-.1,1.17,0S136.32,404.85,136.3,405Z" style="fill:#e0e0e0"></path><polygon points="310.8 431.06 302.49 454.88 306.65 454.88 321.19 431.06 310.8 431.06" style="fill:#ebebeb"></polygon><polygon points="358.46 431.06 366.77 454.88 362.61 454.88 348.07 431.06 358.46 431.06" style="fill:#ebebeb"></polygon><rect x="311.84" y="365.28" width="66.38" height="66.38" style="fill:#e0e0e0"></rect><rect x="291.04" y="365.28" width="66.38" height="66.38" style="fill:#ebebeb"></rect><path d="M353.11,427.64H295.36V369.89h57.75Zm-56.75-1h55.75V370.89H296.36Z" style="fill:#e0e0e0"></path><path d="M296.19,388.28c18.73.55,37.67.39,56.42,0a.27.27,0,0,0,0-.53c-18.75-.36-37.69-.52-56.42,0a.24.24,0,0,0,0,.47Z" style="fill:#e0e0e0"></path><path d="M325.85,379.69a1.62,1.62,0,1,1-1.62-1.61A1.62,1.62,0,0,1,325.85,379.69Z" style="fill:#e0e0e0"></path><path d="M302.57,405.62A1.62,1.62,0,1,1,301,404,1.62,1.62,0,0,1,302.57,405.62Z" style="fill:#ebebeb"></path><rect x="414.83" y="312.9" width="53.48" height="41.25" style="fill:#f5f5f5"></rect><path d="M468.31,354.15s0-.27,0-.77,0-1.26,0-2.21c0-1.95,0-4.78-.06-8.37,0-7.2-.06-17.48-.11-29.9l.22.22-53.48,0c-.06.06.49-.49.26-.25h0v11c0,3.6,0,7.13,0,10.59,0,6.91,0,13.51,0,19.68l-.23-.24,38.56.12,11,.06,2.92,0H468l.27,0h-.24l-.73,0-2.88,0-10.91.07-38.72.11h-.24v-.23c0-6.17,0-12.77,0-19.68q0-5.19,0-10.59v-11h0l.26-.27,53.48.05h.21v.21c0,12.47-.08,22.8-.11,30,0,3.57,0,6.37-.06,8.31,0,.93,0,1.66,0,2.17S468.31,354.15,468.31,354.15Z" style="fill:#e0e0e0"></path><path d="M454.91,354.06c-.05,0-.09-9.2-.09-20.53s0-20.54.09-20.54.08,9.19.08,20.54S455,354.06,454.91,354.06Z" style="fill:#e0e0e0"></path><rect x="459.67" y="344.96" width="4.1" height="4.63" style="fill:#fff"></rect><rect x="431.14" y="313.21" width="6.07" height="8.8" style="fill:#e0e0e0"></rect><rect x="431.14" y="345.43" width="6.07" height="8.8" style="fill:#e0e0e0"></rect><rect x="389.61" y="338.37" width="37.58" height="28.99" style="fill:#f5f5f5"></rect><path d="M427.19,367.35a3.44,3.44,0,0,1,0-.55q0-.57,0-1.56c0-1.39,0-3.37-.05-5.88,0-5.07-.07-12.29-.12-21l.22.21-37.58.05.26-.26h0v7.69q0,3.8,0,7.44c0,4.86,0,9.5,0,13.83l-.23-.23,27.08.11,7.71.07,2.06,0h.73l-.16,0h-.51l-2,0-7.66.06-27.23.12h-.24v-.24c0-4.33,0-9,0-13.83V338.39h0l.26-.26,37.58,0h.21v.22c0,8.76-.08,16-.11,21.12,0,2.5,0,4.46-.05,5.84,0,.64,0,1.15,0,1.52A4.33,4.33,0,0,1,427.19,367.35Z" style="fill:#e0e0e0"></path><path d="M417.77,367.15s-.06-6.46-.06-14.43,0-14.43.06-14.43.06,6.46.06,14.43S417.81,367.15,417.77,367.15Z" style="fill:#e0e0e0"></path><rect x="421.12" y="360.75" width="2.88" height="3.26" style="fill:#fff"></rect><rect x="401.07" y="338.44" width="4.27" height="6.19" style="fill:#e0e0e0"></rect><rect x="401.07" y="361.08" width="4.27" height="6.19" style="fill:#e0e0e0"></rect><path d="M101.81,334.35a28.41,28.41,0,1,1-32.19-24A28.38,28.38,0,0,1,101.81,334.35Z" style="fill:#f5f5f5"></path><path d="M95.12,335.33a21.65,21.65,0,1,1-24.53-18.26A21.61,21.61,0,0,1,95.12,335.33Z" style="fill:#ebebeb"></path><path d="M95,334.66a12.82,12.82,0,0,1-.94-2.5,22.79,22.79,0,0,0-3.43-6.2,22.21,22.21,0,0,0-3.4-3.49,21.86,21.86,0,0,0-4.73-2.92,20.48,20.48,0,0,0-2.82-1,19.22,19.22,0,0,0-3.07-.65,20.24,20.24,0,0,0-3.23-.19,22.33,22.33,0,0,0-3.33.32,22.84,22.84,0,0,0-3.23.84,20.93,20.93,0,0,0-3,1.29,19.17,19.17,0,0,0-2.65,1.67,19.76,19.76,0,0,0-2.29,1.95,21.72,21.72,0,0,0-3.43,4.37,22.29,22.29,0,0,0-2,4.44,23,23,0,0,0-1.08,7,12.92,12.92,0,0,1,0,2.66,6.19,6.19,0,0,1-.62-2.63,20,20,0,0,1,.59-7.37,21.84,21.84,0,0,1,5.48-9.56,21,21,0,0,1,2.42-2.14,22.12,22.12,0,0,1,2.83-1.83,21.52,21.52,0,0,1,3.21-1.41,23.4,23.4,0,0,1,3.48-.92,23.06,23.06,0,0,1,3.59-.34,22.25,22.25,0,0,1,3.49.23,22.06,22.06,0,0,1,11.28,5.18,21.67,21.67,0,0,1,3.46,3.83A20.23,20.23,0,0,1,94.7,332,6.64,6.64,0,0,1,95,334.66Z" style="fill:#e0e0e0"></path><path d="M78,350.87l.59,3.72-3.32.53-.58-3.62a16,16,0,0,1-8.7-1.34l1.17-4.35A13.57,13.57,0,0,0,74,347.14l-.89-5.55c-3.83-.31-8.15-.88-8.91-5.63-.56-3.52,1.51-7,6.67-8.4l-.59-3.69,3.32-.53.58,3.62a15.2,15.2,0,0,1,7.07,1l-1,4.36a13.61,13.61,0,0,0-5.37-.92l.91,5.65c3.83.28,8.08.86,8.83,5.54C85.14,346,83.1,349.4,78,350.87ZM72.3,336.7,71.54,332c-1.69.68-2.24,1.76-2.06,2.86S70.76,336.47,72.3,336.7Zm7,7.1c-.18-1.16-1.25-1.64-2.76-1.91l.74,4.59C78.88,345.85,79.47,344.86,79.3,343.8Z" style="fill:#e0e0e0"></path><path d="M176.65,296.34a18.48,18.48,0,1,1-20.94-15.59A18.45,18.45,0,0,1,176.65,296.34Z" style="fill:#f5f5f5"></path><path d="M172.3,297a14.08,14.08,0,1,1-16-11.88A14.07,14.07,0,0,1,172.3,297Z" style="fill:#ebebeb"></path><path d="M172.23,296.54a9.13,9.13,0,0,1-.61-1.62,14.72,14.72,0,0,0-2.23-4,13.83,13.83,0,0,0-5.29-4.17,13.27,13.27,0,0,0-1.83-.68,14.17,14.17,0,0,0-2-.42,13.24,13.24,0,0,0-2.1-.12,13.39,13.39,0,0,0-2.17.21,14.69,14.69,0,0,0-2.1.54,14,14,0,0,0-1.94.84,13.18,13.18,0,0,0-1.72,1.09,12.3,12.3,0,0,0-1.49,1.27,14.11,14.11,0,0,0-2.23,2.84,14.28,14.28,0,0,0-1.3,2.89,14.63,14.63,0,0,0-.7,4.56,7.59,7.59,0,0,1,0,1.73,4.18,4.18,0,0,1-.4-1.71,12.73,12.73,0,0,1,.39-4.79,13.92,13.92,0,0,1,1.25-3.12,14.43,14.43,0,0,1,3.88-4.5,14.43,14.43,0,0,1,3.93-2.11,14.38,14.38,0,0,1,6.87-.67,14.51,14.51,0,0,1,2.14.49,13.07,13.07,0,0,1,2,.76,14.12,14.12,0,0,1,5.49,4.61,13.22,13.22,0,0,1,2,4.37A3.91,3.91,0,0,1,172.23,296.54Z" style="fill:#e0e0e0"></path><path d="M161.15,307.08l.39,2.42-2.17.35-.37-2.36a10.34,10.34,0,0,1-5.67-.86l.77-2.83a8.91,8.91,0,0,0,4.44.86l-.58-3.61c-2.49-.2-5.3-.57-5.79-3.66-.37-2.3,1-4.53,4.33-5.47l-.38-2.4,2.16-.34.38,2.35a9.86,9.86,0,0,1,4.6.62L162.6,295a8.8,8.8,0,0,0-3.48-.59l.58,3.67c2.49.18,5.26.56,5.75,3.61C165.81,303.92,164.48,306.13,161.15,307.08Zm-3.69-9.21-.5-3.07c-1.1.44-1.45,1.14-1.34,1.86S156.46,297.72,157.46,297.87Zm4.55,4.62c-.12-.76-.81-1.07-1.8-1.25l.48,3C161.73,303.82,162.12,303.18,162,302.49Z" style="fill:#e0e0e0"></path><path d="M129.86,250a14,14,0,1,1-15.81-11.77A13.94,13.94,0,0,1,129.86,250Z" style="fill:#f5f5f5"></path><path d="M126.57,250.52a10.63,10.63,0,1,1-12-9A10.62,10.62,0,0,1,126.57,250.52Z" style="fill:#ebebeb"></path><path d="M126.52,250.19a7,7,0,0,1-.46-1.22,11.1,11.1,0,0,0-1.68-3.05,10.71,10.71,0,0,0-1.67-1.71,10.85,10.85,0,0,0-2.32-1.44,10,10,0,0,0-1.39-.51,10.51,10.51,0,0,0-1.5-.32,9.37,9.37,0,0,0-1.6-.09,10.22,10.22,0,0,0-1.63.16,12,12,0,0,0-1.59.41,10.53,10.53,0,0,0-1.46.63,9.53,9.53,0,0,0-1.3.82,10.58,10.58,0,0,0-1.13,1,10.65,10.65,0,0,0-2.66,4.33,11.14,11.14,0,0,0-.53,3.44,6.75,6.75,0,0,1,0,1.31,3,3,0,0,1-.31-1.29,10,10,0,0,1,.29-3.62,11,11,0,0,1,1-2.35,11.32,11.32,0,0,1,1.74-2.35,10.94,10.94,0,0,1,2.58-2,10.63,10.63,0,0,1,1.58-.69,9.77,9.77,0,0,1,1.71-.45,10.59,10.59,0,0,1,1.76-.17,10.89,10.89,0,0,1,1.72.11,10.22,10.22,0,0,1,1.61.37,9.66,9.66,0,0,1,1.48.57,11.52,11.52,0,0,1,2.45,1.6,10.79,10.79,0,0,1,1.69,1.89,9.94,9.94,0,0,1,1.53,3.29A3,3,0,0,1,126.52,250.19Z" style="fill:#e0e0e0"></path><path d="M118.16,258.15l.29,1.83-1.63.26-.29-1.78a7.82,7.82,0,0,1-4.27-.65l.57-2.14a6.58,6.58,0,0,0,3.36.65l-.44-2.72c-1.88-.15-4-.43-4.38-2.77-.27-1.73.75-3.42,3.28-4.12l-.29-1.82,1.63-.26.29,1.78a7.54,7.54,0,0,1,3.47.47l-.49,2.14a6.86,6.86,0,0,0-2.64-.45l.45,2.77c1.88.14,4,.42,4.33,2.73C121.67,255.76,120.67,257.43,118.16,258.15Zm-2.79-6.95-.37-2.32c-.84.33-1.11.86-1,1.4S114.61,251.08,115.37,251.2Zm3.44,3.48c-.1-.57-.62-.8-1.36-.94l.36,2.26C118.6,255.69,118.89,255.21,118.81,254.68Z" style="fill:#e0e0e0"></path><path d="M419.89,28.64a17.14,17.14,0,0,0-17.37,9.46,17,17,0,0,0-31.44,7.25,15,15,0,0,0-19.9,1.92,15,15,0,0,0,1,20,15,15,0,0,0,20-.17,15.2,15.2,0,0,0,29.17-3.15c6.94,6.38,19.36,5.22,25-2.34l7.66-19.13A17.13,17.13,0,0,0,419.89,28.64Z" style="fill:#ebebeb"></path><path d="M216.07,125.25c.48-3.51-4.48-6.4-8.2-6.7-1.78-.15-3.62.13-5.31-.46-3.64-1.27-5.1-6-8.66-7.48-2.66-1.12-5.72-.13-8.3,1.17s-5.12,2.93-8,3.12c-2.5.16-5.22-.77-7.42.45-1.63.92-2.49,2.8-4,3.91a9.42,9.42,0,0,1-5.22,1.41,14.81,14.81,0,0,0-5.39.88c-1.66.77-3,2.53-2.69,4.32Z" style="fill:#ebebeb"></path><path d="M226.51,60.76A29.55,29.55,0,1,1,189,42.46,29.52,29.52,0,0,1,226.51,60.76Z" style="fill:#f5f5f5"></path><path d="M219.86,63a22.52,22.52,0,1,1-28.59-13.95A22.49,22.49,0,0,1,219.86,63Z" style="fill:#ebebeb"></path><path d="M219.62,62.38A14.82,14.82,0,0,1,218.18,60a23.7,23.7,0,0,0-4.69-5.69,23.17,23.17,0,0,0-4.15-2.9,22.22,22.22,0,0,0-5.4-2.08,20.41,20.41,0,0,0-3.08-.52,20.74,20.74,0,0,0-3.26-.08,21.51,21.51,0,0,0-3.34.43,23.91,23.91,0,0,0-3.34,1,23.18,23.18,0,0,0-3.14,1.48,22.12,22.12,0,0,0-2.8,1.89,21.07,21.07,0,0,0-2.39,2.22,20.24,20.24,0,0,0-2,2.43A22.3,22.3,0,0,0,178,63.29a23.23,23.23,0,0,0-1.19,4.92,23.69,23.69,0,0,0,.25,7.37,14.73,14.73,0,0,1,.49,2.73,6.53,6.53,0,0,1-1.14-2.57,20.77,20.77,0,0,1-.81-7.65,22.7,22.7,0,0,1,3.75-10.82,21.32,21.32,0,0,1,2.07-2.65,21.63,21.63,0,0,1,2.54-2.42,23.46,23.46,0,0,1,3-2.07,25,25,0,0,1,3.39-1.6,25.29,25.29,0,0,1,3.6-1,23.84,23.84,0,0,1,3.62-.44,21.48,21.48,0,0,1,3.51.13,21.88,21.88,0,0,1,3.3.62,23,23,0,0,1,5.71,2.38,22.68,22.68,0,0,1,4.27,3.25,20.73,20.73,0,0,1,4.46,6.27A6.44,6.44,0,0,1,219.62,62.38Z" style="fill:#e0e0e0"></path><path d="M205.32,82.22l1.33,3.69-3.3,1.19-1.29-3.6a16.49,16.49,0,0,1-9.15.31l.37-4.67a14.13,14.13,0,0,0,7.23,0l-2-5.51c-4,.43-8.5.67-10.2-4-1.25-3.49.21-7.4,5.2-9.87l-1.31-3.65,3.3-1.19,1.29,3.6a15.87,15.87,0,0,1,7.41-.4L204,62.78a14.46,14.46,0,0,0-5.66.09l2,5.61c4-.46,8.42-.68,10.09,4C211.71,75.87,210.27,79.74,205.32,82.22ZM196.8,68.84l-1.68-4.68c-1.61,1-2,2.22-1.57,3.31S195.18,68.9,196.8,68.84Zm8.52,5.91c-.42-1.16-1.6-1.44-3.19-1.43l1.63,4.55C205.28,76.92,205.7,75.8,205.32,74.75Z" style="fill:#e0e0e0"></path><path d="M302.18,36.42a14,14,0,1,1-15.81-11.77A13.93,13.93,0,0,1,302.18,36.42Z" style="fill:#f5f5f5"></path><path d="M298.89,36.9a10.63,10.63,0,1,1-12.05-9A10.62,10.62,0,0,1,298.89,36.9Z" style="fill:#ebebeb"></path><path d="M298.84,36.57a6.9,6.9,0,0,1-.46-1.23,11.49,11.49,0,0,0-1.68-3A11.15,11.15,0,0,0,295,30.59a10.54,10.54,0,0,0-2.33-1.44,9.09,9.09,0,0,0-1.38-.51,9.42,9.42,0,0,0-1.51-.32,9.31,9.31,0,0,0-1.59-.09,11.36,11.36,0,0,0-1.63.15,10.31,10.31,0,0,0-1.59.42,10,10,0,0,0-1.46.63,9,9,0,0,0-1.3.82,9.68,9.68,0,0,0-1.13,1,10.78,10.78,0,0,0-1.69,2.15A10.92,10.92,0,0,0,277.91,39a5.2,5.2,0,0,1,0,1.31,3.35,3.35,0,0,1-.3-1.3,9.69,9.69,0,0,1,.29-3.61,10.79,10.79,0,0,1,.95-2.36,10.6,10.6,0,0,1,1.74-2.34,9.3,9.3,0,0,1,1.19-1.05,9.46,9.46,0,0,1,1.39-.9,10.56,10.56,0,0,1,1.57-.7,12.05,12.05,0,0,1,1.72-.45,11.75,11.75,0,0,1,1.76-.16,9.64,9.64,0,0,1,1.71.11,11.93,11.93,0,0,1,1.62.36,11.38,11.38,0,0,1,1.48.58,10.52,10.52,0,0,1,2.44,1.6,11.2,11.2,0,0,1,1.7,1.88,9.71,9.71,0,0,1,1.52,3.3A3.1,3.1,0,0,1,298.84,36.57Z" style="fill:#e0e0e0"></path><path d="M290.47,44.53l.3,1.83-1.64.26-.28-1.78a7.93,7.93,0,0,1-4.28-.65l.58-2.14a6.65,6.65,0,0,0,3.35.65L288.07,40c-1.89-.15-4-.43-4.38-2.77-.28-1.73.74-3.42,3.27-4.12l-.29-1.82,1.64-.26.28,1.78a7.45,7.45,0,0,1,3.48.47l-.5,2.14a6.63,6.63,0,0,0-2.63-.45l.44,2.77c1.88.14,4,.42,4.34,2.72C294,42.14,293,43.81,290.47,44.53Zm-2.79-7-.37-2.32c-.83.33-1.1.86-1,1.4S286.93,37.46,287.68,37.58Zm3.44,3.48c-.09-.57-.61-.8-1.35-.94l.36,2.26C290.91,42.07,291.21,41.58,291.12,41.06Z" style="fill:#e0e0e0"></path><path d="M296.66,91.74a18.2,18.2,0,1,1-8.1-24.4A18.19,18.19,0,0,1,296.66,91.74Z" style="fill:#f5f5f5"></path><path d="M292.79,89.79a13.87,13.87,0,1,1-6.17-18.6A13.87,13.87,0,0,1,292.79,89.79Z" style="fill:#ebebeb"></path><path d="M293,89.4a7.73,7.73,0,0,1,.42-1.65,14.74,14.74,0,0,0,.49-4.52,15,15,0,0,0-.51-3.07A13.65,13.65,0,0,0,292,76.88a13.86,13.86,0,0,0-2.47-3,13,13,0,0,0-1.63-1.29A14.63,14.63,0,0,0,286,71.49a15.26,15.26,0,0,0-2-.75,13.28,13.28,0,0,0-2-.41,11.38,11.38,0,0,0-2-.1,13.3,13.3,0,0,0-1.92.18,14.14,14.14,0,0,0-3.41,1A14.61,14.61,0,0,0,272,73a14.86,14.86,0,0,0-3.14,3.28c-.62.89-.91,1.43-1,1.39a4.3,4.3,0,0,1,.64-1.61,13.16,13.16,0,0,1,3-3.65,14.56,14.56,0,0,1,2.77-1.8,14.13,14.13,0,0,1,3.62-1.2,12.48,12.48,0,0,1,2.06-.24,13.75,13.75,0,0,1,4.36.52,13.86,13.86,0,0,1,2.17.8,14.56,14.56,0,0,1,2,1.14,12.78,12.78,0,0,1,1.75,1.4,13.7,13.7,0,0,1,1.46,1.6,14,14,0,0,1,2.56,5.26,14.07,14.07,0,0,1,.41,3.28,13,13,0,0,1-.84,4.67C293.39,88.92,293,89.43,293,89.4Z" style="fill:#e0e0e0"></path><path d="M278.08,91.65,277,93.82l-1.94-.94,1-2.11a10.27,10.27,0,0,1-4.08-3.9L274.25,85a8.65,8.65,0,0,0,3.09,3.2L278.92,85c-1.9-1.57-4-3.45-2.61-6.23,1-2,3.35-3.1,6.58-2l1.05-2.15,1.94.94-1,2.12a9.82,9.82,0,0,1,3.37,3.09l-2.13,1.92a9,9,0,0,0-2.48-2.45l-1.6,3.3c1.91,1.55,3.93,3.42,2.6,6.15C283.63,91.73,281.3,92.76,278.08,91.65Zm2.22-9.52,1.34-2.75c-1.14-.27-1.82.09-2.13.73S279.58,81.45,280.3,82.13Zm1.07,6.3c.33-.68-.05-1.32-.75-2l-1.3,2.68C280.4,89.35,281.07,89.05,281.37,88.43Z" style="fill:#e0e0e0"></path><path d="M130.21,80.55c.38-2.81-3.59-5.12-6.57-5.36-1.42-.12-2.9.1-4.25-.37-2.92-1-4.08-4.79-6.93-6-2.13-.9-4.59-.1-6.65.94s-4.11,2.34-6.41,2.49c-2,.13-4.19-.61-6,.37-1.3.73-2,2.23-3.2,3.12a7.64,7.64,0,0,1-4.18,1.14,11.78,11.78,0,0,0-4.31.7,3.41,3.41,0,0,0-2.16,3.46Z" style="fill:#f5f5f5"></path><path d="M87.34,61.84c.49-3.51-4.47-6.4-8.2-6.7-1.77-.14-3.62.13-5.3-.46-3.65-1.27-5.1-6-8.66-7.48-2.66-1.12-5.72-.12-8.3,1.17s-5.13,2.94-8,3.12c-2.51.16-5.23-.77-7.42.46-1.63.91-2.49,2.79-4,3.9a9.49,9.49,0,0,1-5.22,1.42,14.51,14.51,0,0,0-5.38.88c-1.67.76-3,2.52-2.7,4.32Z" style="fill:#ebebeb"></path></g><g id="freepik--Floor--inject-41"><path d="M413.77,454.09c0,.14-74.67.26-166.76.26s-166.78-.12-166.78-.26,74.65-.26,166.78-.26S413.77,454,413.77,454.09Z" style="fill:#263238"></path></g><g id="freepik--Arrows--inject-41"><path d="M75.69,240a34.4,34.4,0,0,1-1.2-5.88,33.69,33.69,0,0,1-.68-6A35.24,35.24,0,0,1,75,234,34.6,34.6,0,0,1,75.69,240Z" style="fill:#263238"></path><path d="M82,263.12a28.86,28.86,0,0,1-2.14-5.62,29.69,29.69,0,0,1-1.44-5.84,41.39,41.39,0,0,1,1.93,5.69A42.66,42.66,0,0,1,82,263.12Z" style="fill:#263238"></path><path d="M91.73,285a46.22,46.22,0,0,1-5.3-10.77,47.08,47.08,0,0,1,2.77,5.33A44.76,44.76,0,0,1,91.73,285Z" style="fill:#263238"></path><path d="M104.91,305.05a27.52,27.52,0,0,1-3.83-4.64,27.85,27.85,0,0,1-3.19-5.09,45.42,45.42,0,0,1,3.62,4.79A47,47,0,0,1,104.91,305.05Z" style="fill:#263238"></path><path d="M121.4,322.43a27,27,0,0,1-4.6-3.87,27.6,27.6,0,0,1-4-4.44,45.15,45.15,0,0,1,4.4,4.07A47,47,0,0,1,121.4,322.43Z" style="fill:#263238"></path><path d="M140.84,336.45a27.86,27.86,0,0,1-5.25-2.93,27.29,27.29,0,0,1-4.8-3.61,47.94,47.94,0,0,1,5.09,3.17A48.26,48.26,0,0,1,140.84,336.45Z" style="fill:#263238"></path><path d="M162.59,346.51a26.9,26.9,0,0,1-5.71-1.88,27.18,27.18,0,0,1-5.4-2.63,49.78,49.78,0,0,1,5.6,2.15A48.75,48.75,0,0,1,162.59,346.51Z" style="fill:#263238"></path><path d="M177.2,350.72c0,.14-.75.08-1.62-.12s-1.54-.49-1.5-.63.76-.08,1.62.12S177.24,350.58,177.2,350.72Z" style="fill:#263238"></path><path d="M82.27,232a3.93,3.93,0,0,1-.78-.59c-.47-.41-1.15-1-2-1.75-1.67-1.5-4-3.59-6.46-5.94l.4-.07-.2.37c-1.72,3.09-3.31,5.86-4.49,7.86A19,19,0,0,1,66.71,235a5.21,5.21,0,0,1,.43-.91c.37-.67.8-1.48,1.3-2.42l4.36-7.93.2-.36.16-.29.25.23c2.51,2.35,4.74,4.49,6.35,6.05.79.79,1.44,1.42,1.87,1.87A3.81,3.81,0,0,1,82.27,232Z" style="fill:#263238"></path><path d="M418,231.76a47.21,47.21,0,0,1,.51-6,50.58,50.58,0,0,1,.76-6,27.27,27.27,0,0,1-.24,6A27.5,27.5,0,0,1,418,231.76Z" style="fill:#263238"></path><path d="M412.42,255.07a47.6,47.6,0,0,1,1.53-5.8,45.32,45.32,0,0,1,1.78-5.73,46.38,46.38,0,0,1-3.31,11.53Z" style="fill:#263238"></path><path d="M403,277.13a45.51,45.51,0,0,1,2.44-5.48,43.58,43.58,0,0,1,2.7-5.36A48.07,48.07,0,0,1,403,277.13Z" style="fill:#263238"></path><path d="M390.3,297.44a45.13,45.13,0,0,1,3.27-5,42,42,0,0,1,3.5-4.88A28.44,28.44,0,0,1,394,292.7,27.73,27.73,0,0,1,390.3,297.44Z" style="fill:#263238"></path><path d="M374.6,315.56a42.69,42.69,0,0,1,4-4.48,46.84,46.84,0,0,1,4.21-4.28,29,29,0,0,1-3.83,4.64A29.56,29.56,0,0,1,374.6,315.56Z" style="fill:#263238"></path><path d="M356.27,331a46.38,46.38,0,0,1,4.65-3.8,44.19,44.19,0,0,1,4.82-3.57,28.37,28.37,0,0,1-4.5,4A28,28,0,0,1,356.27,331Z" style="fill:#263238"></path><path d="M335.7,343.33a46.22,46.22,0,0,1,5.21-3,46.76,46.76,0,0,1,5.33-2.75,45.88,45.88,0,0,1-10.54,5.73Z" style="fill:#263238"></path><path d="M313.85,351.83a40.47,40.47,0,0,1,5.38-2,39.91,39.91,0,0,1,5.48-1.71,26.25,26.25,0,0,1-5.31,2.2A26.62,26.62,0,0,1,313.85,351.83Z" style="fill:#263238"></path><path d="M316.94,342.8a3.28,3.28,0,0,1-.43.87c-.3.55-.75,1.33-1.33,2.29-1.14,1.92-2.75,4.56-4.57,7.49l-.14-.39.39.13c3.36,1.09,6.4,2.11,8.58,2.88a18.68,18.68,0,0,1,3.48,1.41,5.77,5.77,0,0,1-1-.26l-2.62-.8-8.63-2.74-.39-.12-.32-.11.17-.28c1.83-2.92,3.49-5.53,4.72-7.4.61-.94,1.11-1.69,1.47-2.2A3.26,3.26,0,0,1,316.94,342.8Z" style="fill:#263238"></path><path d="M339,90.07a3.83,3.83,0,0,1,1.08.08c.69.09,1.69.23,2.92.42,2.45.37,5.84.92,9.58,1.57h.07l-.3.27c-.25-3.76-.44-7.17-.53-9.64a20.38,20.38,0,0,1,0-4,7.67,7.67,0,0,1,.12,1.06c.06.81.14,1.78.23,2.92.19,2.59.42,5.93.69,9.63l0,.33-.33-.06h-.07c-3.74-.64-7.12-1.25-9.56-1.72-1.22-.23-2.2-.43-2.88-.58A5.16,5.16,0,0,1,339,90.07Z" style="fill:#263238"></path><path d="M149.35,80.7a45.73,45.73,0,0,1-4.71,3.72,42.39,42.39,0,0,1-4.88,3.48,28.77,28.77,0,0,1,4.57-3.9A27.82,27.82,0,0,1,149.35,80.7Z" style="fill:#263238"></path><path d="M170,68.57a43.46,43.46,0,0,1-5.21,3,43.4,43.4,0,0,1-5.35,2.7,28.69,28.69,0,0,1,5.1-3.16A28.63,28.63,0,0,1,170,68.57Z" style="fill:#263238"></path><path d="M192.24,59.51a36.81,36.81,0,0,1-5.54,2.32A36.07,36.07,0,0,1,181,63.66a33.62,33.62,0,0,1,5.54-2.32A33.74,33.74,0,0,1,192.24,59.51Z" style="fill:#263238"></path><path d="M215.46,53.51a34.91,34.91,0,0,1-5.8,1.56,34.64,34.64,0,0,1-5.91,1,36.6,36.6,0,0,1,5.8-1.56A35.15,35.15,0,0,1,215.46,53.51Z" style="fill:#263238"></path><path d="M239.27,50.59a34.38,34.38,0,0,1-6,.8,35.48,35.48,0,0,1-6,.27,34.41,34.41,0,0,1,6-.79A35,35,0,0,1,239.27,50.59Z" style="fill:#263238"></path><path d="M263.22,51.28a45.59,45.59,0,0,1-6-.33,46.81,46.81,0,0,1-6-.57,46.17,46.17,0,0,1,12,.9Z" style="fill:#263238"></path><path d="M286.73,56.05a45.17,45.17,0,0,1-5.87-1.28,44.3,44.3,0,0,1-5.79-1.56A28.65,28.65,0,0,1,281,54.27,28.3,28.3,0,0,1,286.73,56.05Z" style="fill:#263238"></path><path d="M309.31,64.14a35.1,35.1,0,0,1-5.68-2,34.79,34.79,0,0,1-5.48-2.46,35.83,35.83,0,0,1,5.68,2A35.93,35.93,0,0,1,309.31,64.14Z" style="fill:#263238"></path><path d="M330.6,75.18a34.87,34.87,0,0,1-5.35-2.72,35.25,35.25,0,0,1-5.11-3.16A33.5,33.5,0,0,1,325.5,72,34,34,0,0,1,330.6,75.18Z" style="fill:#263238"></path><path d="M349.93,89.22a48.46,48.46,0,0,1-4.73-3.61,45.47,45.47,0,0,1-4.59-3.8,27.42,27.42,0,0,1,4.91,3.39A26.08,26.08,0,0,1,349.93,89.22Z" style="fill:#263238"></path></g><g id="freepik--Box--inject-41"><rect x="357.91" y="282.27" width="57.14" height="44.07" style="fill:#455a64"></rect><path d="M400.73,326c-.05,0-.09-9.82-.09-21.94s0-21.94.09-21.94.09,9.82.09,21.94S400.78,326,400.73,326Z" style="fill:#263238"></path><rect x="402.9" y="316.31" width="7.33" height="8.29" style="fill:#e0e0e0"></rect><rect x="375.34" y="282.39" width="6.49" height="9.4" style="fill:#263238"></rect><rect x="375.34" y="316.82" width="6.49" height="9.4" style="fill:#263238"></rect><path d="M414.55,282.27H414l-1.65,0-6.07,0-20,0-20,0-6.06,0-1.65,0h1.65l6.06,0,20,0,20,0,6.07,0h2.23Z" style="fill:#263238"></path><polygon points="357.91 282.27 350.65 272.42 395.02 272.42 400.73 282.15 357.91 282.27" style="fill:#455a64"></polygon><path d="M357.91,282.27l.22,0,.63,0,2.43-.05,9-.1,30.56-.18-.22.38c-1.83-3.13-3.75-6.38-5.71-9.73l.22.13h-1.25l-43.12-.1.13-.25,5.27,7.28,1.39,2,.36.51a1.34,1.34,0,0,1,.11.19s-.05,0-.13-.15l-.38-.47-1.45-1.9-5.43-7.23-.2-.26h.33l43.12-.1h1.4l.08.13L401,282l.22.39h-.44l-30.67,0-8.95-.05-2.39,0-.61,0C358,282.29,357.91,282.28,357.91,282.27Z" style="fill:#263238"></path><polygon points="400.64 282.36 406.88 272.27 421.59 272.27 414.95 282.13 400.64 282.36" style="fill:#455a64"></polygon><path d="M400.64,282.36s.4,0,1.1-.05l2.95-.11c2.53-.09,6.06-.22,10.26-.31l-.19.11,6.61-9.87.22.4h-.19l-14.52,0,.18-.1c-1.86,3-3.46,5.43-4.59,7.18-.54.84-1,1.52-1.33,2s-.48.74-.5.75.12-.22.39-.69l1.2-2c1-1.77,2.57-4.36,4.47-7.47l.06-.1h.12L421.4,272h.68l-.27.41-6.66,9.83-.07.1H415c-4.33.05-8,0-10.46,0h-2.88A7.6,7.6,0,0,1,400.64,282.36Z" style="fill:#263238"></path></g><g id="freepik--Coins--inject-41"><circle cx="254.76" cy="47.98" r="22.05" transform="translate(117.57 267.94) rotate(-68.71)" style="fill:#ED2222"></circle><path d="M276.41,52.13a2,2,0,0,1,0-.36l.12-1c0-.23.06-.49.09-.77s0-.59,0-.93a15.11,15.11,0,0,0,0-2.31,20.66,20.66,0,0,0-1.31-6.18A21.87,21.87,0,0,0,271,33.4a21.64,21.64,0,0,0-8.27-5.72,21.86,21.86,0,0,0-11.43-1.22,23.66,23.66,0,0,0-3,.7,21.74,21.74,0,0,0-2.94,1.18,24.08,24.08,0,0,0-2.83,1.6A25.4,25.4,0,0,0,240,32a21.38,21.38,0,0,0-4.19,5.31,23.3,23.3,0,0,0-2.4,6.54,23.27,23.27,0,0,0-.19,7,21.11,21.11,0,0,0,1.93,6.49,23.15,23.15,0,0,0,1.62,2.88,22.71,22.71,0,0,0,2,2.53,20.39,20.39,0,0,0,4.85,4,21.91,21.91,0,0,0,11.07,3.1,21.58,21.58,0,0,0,9.8-2.26,21.94,21.94,0,0,0,6.65-5,21.07,21.07,0,0,0,3.5-5.26,15.88,15.88,0,0,0,.89-2.14c.11-.31.23-.6.32-.87l.19-.75c.12-.42.21-.76.28-1a1.4,1.4,0,0,1,.11-.34,1.56,1.56,0,0,1-.06.35c-.06.26-.13.6-.23,1l-.17.75c-.08.28-.19.57-.29.89a16.07,16.07,0,0,1-.85,2.18,21.12,21.12,0,0,1-3.47,5.36,22.24,22.24,0,0,1-16.67,7.54,22.29,22.29,0,0,1-11.31-3.13,21.75,21.75,0,0,1-2.62-1.8,22.51,22.51,0,0,1-2.36-2.23,24.05,24.05,0,0,1-2.08-2.59,25.64,25.64,0,0,1-1.67-2.94,21.63,21.63,0,0,1-2-6.64,23.73,23.73,0,0,1,.19-7.13,23.75,23.75,0,0,1,2.46-6.69,21.36,21.36,0,0,1,4.29-5.43,25.36,25.36,0,0,1,2.64-2.13,25.07,25.07,0,0,1,2.89-1.63,24.32,24.32,0,0,1,3-1.2,22.66,22.66,0,0,1,14.76.58A22.25,22.25,0,0,1,275.6,40.44a20.34,20.34,0,0,1,1.24,6.27,16.26,16.26,0,0,1,0,2.33c0,.34,0,.65-.06.94s-.08.53-.12.76c-.07.44-.12.78-.17,1A2.07,2.07,0,0,1,276.41,52.13Z" style="fill:#263238"></path><g style="opacity:0.1"><path d="M258.91,26.33a22,22,0,0,0-25.8,17.49S248.19,47.42,253,42,258.91,26.33,258.91,26.33Z" style="fill:#fff"></path></g><path d="M270.94,50.72a16.76,16.76,0,1,1-13.3-19.61A16.77,16.77,0,0,1,270.94,50.72Z" style="fill:#ED2222"></path><g style="opacity:0.2"><path d="M270.94,50.72a16.76,16.76,0,1,1-13.3-19.61A16.77,16.77,0,0,1,270.94,50.72Z"></path></g><path d="M271.27,51.5a16.53,16.53,0,1,1-13.12-19.35A16.53,16.53,0,0,1,271.27,51.5Z" style="fill:#ED2222"></path><g style="opacity:0.2"><path d="M271.27,51.5a16.53,16.53,0,1,1-13.12-19.35A16.53,16.53,0,0,1,271.27,51.5Z" style="fill:#fff"></path></g><path d="M256,47.1l.8-4.15h0a8.92,8.92,0,0,1,2.1,1,7.26,7.26,0,0,1,.9.85l.08-.12.93-1.37L261,43l-.6-.92-.38.1a7.85,7.85,0,0,0-2.85-1.45l.44-2.28-.6-.71-.11.57-1-.19-.45,2.33c-3.27-.31-5.15,1.23-5.55,3.33-.55,2.86,1.76,4.07,3.94,5.07L253.08,53a8.06,8.06,0,0,1-3.82-2.35l-1.32,1.9a9.24,9.24,0,0,0,4.71,2.68l-.33,1.72-.81-.14.7.7,1.69.32.44-2.3c3.3.29,5.19-1.23,5.59-3.33C260.48,49.29,258.13,48.09,256,47.1Zm-1.6-.75c-1.13-.58-1.93-1.21-1.74-2.19s.93-1.53,2.44-1.48Zm2.4-3.41Zm-2,10.29.7-3.64c1.17.59,2,1.24,1.79,2.24S256.32,53.3,254.77,53.23Z" style="fill:#ED2222"></path><g style="opacity:0.30000000000000004"><path d="M256,47.1l.8-4.15h0a8.92,8.92,0,0,1,2.1,1,7.26,7.26,0,0,1,.9.85l.08-.12.93-1.37L261,43l-.6-.92-.38.1a7.85,7.85,0,0,0-2.85-1.45l.44-2.28-.6-.71-.11.57-1-.19-.45,2.33c-3.27-.31-5.15,1.23-5.55,3.33-.55,2.86,1.76,4.07,3.94,5.07L253.08,53a8.06,8.06,0,0,1-3.82-2.35l-1.32,1.9a9.24,9.24,0,0,0,4.71,2.68l-.33,1.72-.81-.14.7.7,1.69.32.44-2.3c3.3.29,5.19-1.23,5.59-3.33C260.48,49.29,258.13,48.09,256,47.1Zm-1.6-.75c-1.13-.58-1.93-1.21-1.74-2.19s.93-1.53,2.44-1.48Zm2.4-3.41Zm-2,10.29.7-3.64c1.17.59,2,1.24,1.79,2.24S256.32,53.3,254.77,53.23Z"></path></g><path d="M253.75,54.78l-.44,2.31-1.69-.33.44-2.28a9.17,9.17,0,0,1-4.71-2.68l1.32-1.9a8,8,0,0,0,3.82,2.35l.79-4.11c-2.18-1-4.49-2.21-3.94-5.07.4-2.1,2.28-3.64,5.55-3.33l.45-2.33,1.68.33L256.59,40a8.87,8.87,0,0,1,3.93,2.06L259.28,44a8.88,8.88,0,0,0-3.12-1.75l-.8,4.16c2.18,1,4.53,2.19,4,5.06C258.94,53.56,257.05,55.07,253.75,54.78Zm0-9.13.7-3.67c-1.51,0-2.27.57-2.44,1.48S252.63,45.07,253.76,45.65Zm2.91,5.49c.2-1-.62-1.66-1.79-2.25l-.7,3.65C255.73,52.6,256.5,52,256.67,51.14Z" style="fill:#ED2222"></path><path d="M234.37,54.6a.82.82,0,0,1-.07-.19c0-.14-.1-.32-.17-.55s-.15-.52-.22-.87-.18-.73-.24-1.17c0-.22-.07-.45-.11-.69s-.06-.49-.09-.75c-.06-.52-.08-1.07-.11-1.66a25.59,25.59,0,0,1,.24-3.8,23.17,23.17,0,0,1,.9-3.71c.2-.55.38-1.08.59-1.56.11-.23.2-.47.31-.69l.31-.62c.18-.4.4-.74.57-1.05a7.6,7.6,0,0,1,.48-.77c.13-.19.23-.35.32-.47a.9.9,0,0,1,.12-.16.9.9,0,0,1-.1.18l-.29.49c-.13.21-.29.46-.45.78s-.37.65-.55,1l-.3.63c-.1.21-.19.45-.29.69-.21.47-.38,1-.58,1.55a22.81,22.81,0,0,0-1.12,7.46c0,.58,0,1.13.09,1.65,0,.26,0,.51.07.75s.07.46.1.68c.06.44.15.83.22,1.17a7.9,7.9,0,0,0,.2.88c.05.22.1.41.13.55S234.38,54.59,234.37,54.6Z" style="fill:#fff"></path><path d="M250.42,45.06a1.38,1.38,0,0,1-.39-.57,2.59,2.59,0,0,1-.16-1.64,2.63,2.63,0,0,1,.86-1.41,1.24,1.24,0,0,1,.6-.34s-.22.14-.52.42a2.77,2.77,0,0,0-.78,1.37,2.71,2.71,0,0,0,.11,1.56C250.28,44.84,250.44,45.05,250.42,45.06Z" style="fill:#fff"></path><path d="M255.3,39.46a1.62,1.62,0,0,1,0-.69,1.57,1.57,0,0,1,.21-.66c.05,0,0,.32-.05.69S255.35,39.47,255.3,39.46Z" style="fill:#fff"></path><path d="M259.21,31a3.1,3.1,0,0,1-.53-.12l-.61-.15c-.24-.05-.51-.12-.82-.17s-.64-.11-1-.15-.74-.07-1.15-.1a18.44,18.44,0,0,0-2.65.06,17.43,17.43,0,0,0-2.61.46c-.39.11-.77.21-1.11.33s-.66.23-.95.34-.54.23-.77.32l-.57.27a3.87,3.87,0,0,1-.49.22,3,3,0,0,1,.46-.28c.15-.08.34-.19.56-.29s.47-.23.76-.35.61-.25,1-.36.73-.23,1.12-.35a19.29,19.29,0,0,1,2.63-.48,17.35,17.35,0,0,1,2.68,0c.41,0,.8.06,1.16.12s.7.11,1,.17.58.13.82.19.44.12.61.18A3,3,0,0,1,259.21,31Z" style="fill:#fff"></path><path d="M253.45,69l-.4,0c-.26,0-.64,0-1.11,0a15.86,15.86,0,0,1-3.6-.64A16.3,16.3,0,0,1,245,66.93a10.12,10.12,0,0,1-.94-.6,1.69,1.69,0,0,1-.32-.25,1.79,1.79,0,0,1,.36.2c.22.14.54.33.95.55a18.85,18.85,0,0,0,3.35,1.39,18.18,18.18,0,0,0,3.57.69c.46,0,.84.06,1.1.07A2.12,2.12,0,0,1,253.45,69Z" style="fill:#fff"></path><circle cx="102.05" cy="300.87" r="22.05" transform="translate(-208.62 367.38) rotate(-83.35)" style="fill:#ED2222"></circle><path d="M123.7,305a1.61,1.61,0,0,1,0-.36l.12-1,.09-.77c0-.28,0-.59,0-.93a16.51,16.51,0,0,0,0-2.31,21.43,21.43,0,0,0-1.31-6.19,22.11,22.11,0,0,0-4.31-7.13,21.76,21.76,0,0,0-19.7-6.94,25,25,0,0,0-3,.69,21.18,21.18,0,0,0-8.34,4.87,20.58,20.58,0,0,0-4.19,5.31,23.3,23.3,0,0,0-2.4,6.54,22.93,22.93,0,0,0-.19,7,21,21,0,0,0,1.92,6.48A26.17,26.17,0,0,0,84,313.1a25.25,25.25,0,0,0,2,2.53,20.18,20.18,0,0,0,4.86,4,21.88,21.88,0,0,0,11.07,3.1,22,22,0,0,0,16.44-7.29,21.14,21.14,0,0,0,3.51-5.26,15.88,15.88,0,0,0,.89-2.14c.11-.32.23-.6.31-.87l.2-.75c.11-.42.2-.76.27-1a2.34,2.34,0,0,1,.11-.34,1.56,1.56,0,0,1-.06.35c0,.26-.13.6-.22,1l-.17.75c-.08.28-.19.57-.3.89a14.85,14.85,0,0,1-.85,2.18,20.58,20.58,0,0,1-3.47,5.36A22.19,22.19,0,0,1,102,323.12,21.93,21.93,0,0,1,85.68,316a25.16,25.16,0,0,1-2.09-2.59,24.89,24.89,0,0,1-1.66-2.95,21.67,21.67,0,0,1-2-6.63A22.13,22.13,0,0,1,82.61,290a21.53,21.53,0,0,1,4.29-5.43,20.58,20.58,0,0,1,5.53-3.75,23.29,23.29,0,0,1,3-1.2,23,23,0,0,1,3.1-.7,22.16,22.16,0,0,1,24.36,14.44,21.07,21.07,0,0,1,1.24,6.27,16.42,16.42,0,0,1,0,2.34c0,.34,0,.65-.06.93s-.08.54-.12.77c-.07.43-.13.78-.17,1A1.5,1.5,0,0,1,123.7,305Z" style="fill:#263238"></path><g style="opacity:0.1"><path d="M106.21,279.22a22.06,22.06,0,0,0-25.81,17.5s15.09,3.6,19.92-1.83S106.21,279.22,106.21,279.22Z" style="fill:#fff"></path></g><path d="M118.23,303.62A16.75,16.75,0,1,1,104.93,284,16.75,16.75,0,0,1,118.23,303.62Z" style="fill:#ED2222"></path><g style="opacity:0.2"><path d="M118.23,303.62A16.75,16.75,0,1,1,104.93,284,16.75,16.75,0,0,1,118.23,303.62Z"></path></g><path d="M118.57,304.4A16.54,16.54,0,1,1,105.45,285,16.54,16.54,0,0,1,118.57,304.4Z" style="fill:#ED2222"></path><g style="opacity:0.2"><path d="M118.57,304.4A16.54,16.54,0,1,1,105.45,285,16.54,16.54,0,0,1,118.57,304.4Z" style="fill:#fff"></path></g><path d="M103.25,300l.79-4.16h0a8.56,8.56,0,0,1,2.1,1,7,7,0,0,1,.91.85l.08-.12.93-1.37.21-.32-.59-.92-.39.09a8,8,0,0,0-2.84-1.44l.44-2.29-.6-.71-.11.58-1-.19-.44,2.33c-3.27-.31-5.15,1.23-5.55,3.33-.55,2.86,1.76,4.07,3.93,5.06l-.79,4.12a8.07,8.07,0,0,1-3.81-2.35l-1.33,1.9a9.2,9.2,0,0,0,4.72,2.67l-.33,1.73-.81-.14.7.7,1.69.32.44-2.3c3.29.29,5.19-1.23,5.59-3.33C107.78,302.19,105.42,301,103.25,300Zm-1.61-.76c-1.12-.58-1.92-1.2-1.73-2.19s.93-1.53,2.43-1.47Zm2.4-3.4Zm-2,10.29.7-3.64c1.17.59,2,1.23,1.79,2.24S103.62,306.19,102.07,306.13Z" style="fill:#ED2222"></path><g style="opacity:0.30000000000000004"><path d="M103.25,300l.79-4.16h0a8.56,8.56,0,0,1,2.1,1,7,7,0,0,1,.91.85l.08-.12.93-1.37.21-.32-.59-.92-.39.09a8,8,0,0,0-2.84-1.44l.44-2.29-.6-.71-.11.58-1-.19-.44,2.33c-3.27-.31-5.15,1.23-5.55,3.33-.55,2.86,1.76,4.07,3.93,5.06l-.79,4.12a8.07,8.07,0,0,1-3.81-2.35l-1.33,1.9a9.2,9.2,0,0,0,4.72,2.67l-.33,1.73-.81-.14.7.7,1.69.32.44-2.3c3.29.29,5.19-1.23,5.59-3.33C107.78,302.19,105.42,301,103.25,300Zm-1.61-.76c-1.12-.58-1.92-1.2-1.73-2.19s.93-1.53,2.43-1.47Zm2.4-3.4Zm-2,10.29.7-3.64c1.17.59,2,1.23,1.79,2.24S103.62,306.19,102.07,306.13Z"></path></g><path d="M101.05,307.68l-.44,2.3-1.69-.32.44-2.29a9.16,9.16,0,0,1-4.72-2.67L96,302.8a8.07,8.07,0,0,0,3.81,2.35l.79-4.12c-2.17-1-4.48-2.2-3.93-5.06.4-2.1,2.28-3.64,5.55-3.33l.44-2.33,1.69.32-.44,2.29a8.85,8.85,0,0,1,3.94,2.06l-1.24,1.91a8.66,8.66,0,0,0-3.12-1.75l-.8,4.16c2.18,1,4.53,2.19,4,5.05C106.24,306.45,104.35,308,101.05,307.68Zm0-9.14.71-3.66c-1.51-.06-2.27.57-2.44,1.47S99.93,298,101.05,298.54ZM104,304c.19-1-.62-1.65-1.79-2.24l-.7,3.64C103,305.5,103.8,304.92,104,304Z" style="fill:#ED2222"></path><path d="M81.67,307.49s0-.06-.07-.18l-.17-.55c-.07-.24-.16-.53-.23-.87s-.17-.73-.24-1.17c0-.22-.07-.45-.11-.69s0-.49-.08-.75c-.07-.52-.08-1.08-.11-1.66a21.73,21.73,0,0,1,1.14-7.51c.19-.55.37-1.08.59-1.56q.15-.36.3-.69l.31-.62c.19-.4.4-.75.58-1.05s.33-.56.47-.77l.32-.47.12-.16s0,.07-.09.18l-.29.49a6.89,6.89,0,0,0-.45.77c-.17.31-.37.66-.55,1.06l-.3.62c-.11.22-.19.46-.29.69-.21.48-.39,1-.58,1.55a25.62,25.62,0,0,0-.88,3.69,25.32,25.32,0,0,0-.25,3.78c0,.58,0,1.13.09,1.65,0,.25,0,.5.08.74l.1.69c0,.44.15.82.21,1.17s.14.64.2.88l.14.55C81.66,307.42,81.67,307.49,81.67,307.49Z" style="fill:#fff"></path><path d="M97.71,298a1.54,1.54,0,0,1-.38-.57,2.56,2.56,0,0,1,.7-3.05,1.53,1.53,0,0,1,.59-.35s-.22.15-.51.43a2.79,2.79,0,0,0-.79,1.36,2.82,2.82,0,0,0,.11,1.57C97.58,297.73,97.74,297.94,97.71,298Z" style="fill:#fff"></path><path d="M102.6,292.36s0-.32.05-.69.16-.67.21-.66a1.63,1.63,0,0,1,0,.69A1.57,1.57,0,0,1,102.6,292.36Z" style="fill:#fff"></path><path d="M106.5,283.87l-.52-.12a5,5,0,0,0-.61-.15c-.25-.05-.52-.13-.82-.17s-.64-.11-1-.15-.75-.07-1.15-.1a19.86,19.86,0,0,0-2.65.05,18.75,18.75,0,0,0-2.61.47c-.4.11-.77.2-1.12.33a9.51,9.51,0,0,0-1,.34c-.29.1-.54.22-.76.32l-.57.27a3.87,3.87,0,0,1-.49.22,2.46,2.46,0,0,1,.46-.28,4.72,4.72,0,0,1,.56-.29,8,8,0,0,1,.76-.35c.29-.12.6-.25,1-.36s.72-.23,1.12-.35a17.4,17.4,0,0,1,2.63-.48,18.75,18.75,0,0,1,2.68-.05c.41,0,.8.07,1.16.12s.7.11,1,.18.58.13.82.19a5.9,5.9,0,0,1,.6.17A2.61,2.61,0,0,1,106.5,283.87Z" style="fill:#fff"></path><path d="M100.75,321.91l-.4,0a11.05,11.05,0,0,1-1.11,0,16,16,0,0,1-3.61-.64,16.55,16.55,0,0,1-3.36-1.45c-.4-.24-.72-.45-.93-.6A1.34,1.34,0,0,1,91,319a2,2,0,0,1,.35.2c.22.13.55.32,1,.54a17.79,17.79,0,0,0,3.35,1.4,18,18,0,0,0,3.56.68c.47.05.85.07,1.11.08A2.12,2.12,0,0,1,100.75,321.91Z" style="fill:#fff"></path></g><g id="freepik--Factory--inject-41"><polygon points="418.62 43.45 414.27 123.66 440.98 123.66 436.66 43.45 418.62 43.45" style="fill:#f5f5f5"></polygon><polygon points="436.92 48.2 418.37 48.2 418.62 43.45 436.73 43.45 436.92 48.2" style="fill:#ED2222"></polygon><polygon points="437.69 62.49 417.59 62.49 417.94 56.12 437.34 56.12 437.69 62.49" style="fill:#ED2222"></polygon><polygon points="438.39 75.57 416.88 75.57 417.23 69.2 438.11 69.2 438.39 75.57" style="fill:#ED2222"></polygon><polygon points="439.09 88.66 416.17 88.66 416.52 82.28 438.75 82.28 439.09 88.66" style="fill:#ED2222"></polygon><polygon points="439.8 101.79 415.46 101.74 415.78 95.37 439.46 95.37 439.8 101.79" style="fill:#ED2222"></polygon><polygon points="440.51 114.93 414.75 114.82 415.1 108.45 440.16 108.45 440.51 114.93" style="fill:#ED2222"></polygon><path d="M418.62,43.45h1.2l3.51,0,13.33,0h.07v.07c1,17.57,2.55,46.81,4.37,80.2v.14h-27v-.14c1.27-23,2.38-43,3.17-57.36l.94-16.8c.12-2,.2-3.46.26-4.49,0-.51.06-.9.08-1.16s0-.39,0-.39,0,.14,0,.4,0,.67-.05,1.18c-.06,1-.13,2.56-.23,4.52-.21,3.94-.51,9.67-.88,16.83-.76,14.3-1.83,34.34-3.05,57.29l-.12-.13H441l-.13.14c-1.78-33.4-3.33-62.64-4.26-80.22l.07.07-13.28,0h-4.76Z" style="fill:#263238"></path><path d="M438.45,54.07H416.81a2,2,0,0,1-2-2h0a2,2,0,0,1,2-2h21.64a2,2,0,0,1,2,2h0A2,2,0,0,1,438.45,54.07Z" style="fill:#e0e0e0"></path><path d="M438.45,54.07A4.49,4.49,0,0,0,439,54a2,2,0,0,0,1.2-1,2,2,0,0,0,.22-1.12,2,2,0,0,0-.57-1.2,2,2,0,0,0-1.4-.58h-1.81l-19.83,0a2,2,0,0,0-1.25.45,1.92,1.92,0,0,0,.55,3.24,3.11,3.11,0,0,0,1.3.13h3.9l8.92,0,6,0,1.64,0,.42,0h-.42l-1.64,0-6,0-8.92,0h-3.9c-.23,0-.45,0-.68,0a2.17,2.17,0,0,1,.08-4.33l19.83,0h1.81a2.11,2.11,0,0,1,2.09,1.93,2.18,2.18,0,0,1-.25,1.17A2,2,0,0,1,439,54,1.59,1.59,0,0,1,438.45,54.07Z" style="fill:#263238"></path><path d="M290.93,159.28h-7.24a3.15,3.15,0,0,1-3.15-3.15v-44a3.15,3.15,0,0,1,3.15-3.15h9.36a3.15,3.15,0,0,1,3.15,3.15v6.51h-1v-6.51a2.17,2.17,0,0,0-2.16-2.17h-9.36a2.17,2.17,0,0,0-2.16,2.17v44a2.16,2.16,0,0,0,2.16,2.16h7.24Z" style="fill:#263238"></path><rect x="281.35" y="148.58" width="10.2" height="0.99" style="fill:#263238"></rect><rect x="281.35" y="140.11" width="10.2" height="0.99" style="fill:#263238"></rect><rect x="281.35" y="131.64" width="10.2" height="0.99" style="fill:#263238"></rect><rect x="281.35" y="123.17" width="10.2" height="0.99" style="fill:#263238"></rect><polygon points="291.06 212.03 291.06 119.51 334.35 98.55 334.35 119.97 380.38 98.55 380.38 120.43 472.44 120.43 472.44 212.03 291.06 212.03" style="fill:#ED2222"></polygon><rect x="302.21" y="146.38" width="150.52" height="24.82" style="fill:#fff"></rect><path d="M452.73,158.82c0,.05-33.84.09-75.58.09s-75.59,0-75.59-.09,33.83-.09,75.59-.09S452.73,158.77,452.73,158.82Z" style="fill:#ED2222"></path><path d="M311.22,170.81a1.39,1.39,0,0,1,0,.33l0,.94h-.11c-.05-2.19-.08-7.13-.08-12.87,0-3.88,0-7.4,0-10,0-1.26,0-2.28,0-3,0-.34,0-.61,0-.83a1.58,1.58,0,0,1,0-.28,1.07,1.07,0,0,1,0,.28c0,.22,0,.49,0,.83,0,.75,0,1.77,0,3,0,2.59,0,6.11,0,10,0,5.74,0,10.68-.07,12.87h-.11c0-.39,0-.7,0-.94A1.19,1.19,0,0,1,311.22,170.81Z" style="fill:#ED2222"></path><path d="M322.11,170.59a1.5,1.5,0,0,1,0,.33c0,.24,0,.56,0,.94h-.11c0-2.19-.07-7.13-.07-12.86,0-3.89,0-7.41,0-10,0-1.25,0-2.28,0-3,0-.34,0-.61,0-.82a1.11,1.11,0,0,1,0-.29.94.94,0,0,1,0,.29c0,.21,0,.48,0,.82,0,.75,0,1.78,0,3,0,2.59,0,6.11,0,10,0,5.73,0,10.67-.08,12.86h-.11c0-.38,0-.7,0-.94A1.5,1.5,0,0,1,322.11,170.59Z" style="fill:#ED2222"></path><path d="M333,170.45a1.16,1.16,0,0,1,0,.3l0,.9h-.11c0-2.08-.08-6.74-.08-12.17,0-3.67,0-7,0-9.44,0-1.19,0-2.16,0-2.87l0-.78a1.52,1.52,0,0,1,0-.27,1,1,0,0,1,0,.27c0,.21,0,.47,0,.78,0,.71,0,1.68,0,2.87,0,2.45,0,5.77,0,9.44,0,5.43,0,10.09-.07,12.17h-.11c0-.37,0-.66,0-.9A1,1,0,0,1,333,170.45Z" style="fill:#ED2222"></path><path d="M343.88,170.16a1.34,1.34,0,0,1,0,.32c0,.25,0,.56,0,1h-.1c-.05-2.19-.08-7.13-.08-12.87,0-3.89,0-7.41,0-10,0-1.25,0-2.28,0-3,0-.33,0-.6,0-.82a1.11,1.11,0,0,1,0-.29.94.94,0,0,1,0,.29c0,.22,0,.49,0,.82,0,.75,0,1.78,0,3,0,2.59,0,6.11,0,10,0,5.74,0,10.68-.08,12.87h-.1l0-1A1.34,1.34,0,0,1,343.88,170.16Z" style="fill:#ED2222"></path><path d="M354.76,170a1.16,1.16,0,0,1,0,.3c0,.23,0,.52,0,.88h-.11c0-2-.08-6.62-.08-12,0-3.61,0-6.88,0-9.29,0-1.16,0-2.11,0-2.82l0-.76a1.39,1.39,0,0,1,0-.27.94.94,0,0,1,0,.27l0,.76c0,.71,0,1.66,0,2.82,0,2.41,0,5.68,0,9.29,0,5.33,0,9.91-.07,12h-.11c0-.36,0-.65,0-.88A1,1,0,0,1,354.76,170Z" style="fill:#ED2222"></path><path d="M365.65,170.76a1.55,1.55,0,0,1,0,.34c0,.25,0,.58,0,1h-.1c-.05-2.27-.08-7.4-.08-13.36,0-4,0-7.69,0-10.38,0-1.3,0-2.36,0-3.14,0-.35,0-.63,0-.86a1.11,1.11,0,0,1,0-.29.94.94,0,0,1,0,.29c0,.23,0,.51,0,.86,0,.78,0,1.84,0,3.14,0,2.69,0,6.34,0,10.38,0,6,0,11.09-.08,13.36h-.1c0-.4,0-.73,0-1A1.55,1.55,0,0,1,365.65,170.76Z" style="fill:#ED2222"></path><path d="M376.53,169.7a1.25,1.25,0,0,1,0,.3c0,.23,0,.51,0,.87h-.11c0-2-.08-6.54-.08-11.79,0-3.58,0-6.82,0-9.16,0-1.15,0-2.09,0-2.78q0-.45,0-.75a1.39,1.39,0,0,1,0-.27.94.94,0,0,1,0,.27c0,.2,0,.45,0,.75,0,.69,0,1.63,0,2.78,0,2.34,0,5.58,0,9.16,0,5.25,0,9.78-.07,11.79h-.11c0-.36,0-.64,0-.87A1.85,1.85,0,0,1,376.53,169.7Z" style="fill:#ED2222"></path><path d="M387.42,170.66a1.16,1.16,0,0,1,0,.3c0,.24,0,.53,0,.9h-.1c-.05-2.07-.08-6.73-.08-12.15,0-3.66,0-7,0-9.43,0-1.18,0-2.14,0-2.86,0-.31,0-.57,0-.77a.94.94,0,0,1,0-.27.8.8,0,0,1,0,.27c0,.2,0,.46,0,.77,0,.72,0,1.68,0,2.86,0,2.45,0,5.77,0,9.43,0,5.42,0,10.08-.08,12.15h-.1c0-.37,0-.66,0-.9A1.16,1.16,0,0,1,387.42,170.66Z" style="fill:#ED2222"></path><path d="M398.3,170.44a1.16,1.16,0,0,1,0,.3c0,.24,0,.53,0,.89h-.11c0-2-.07-6.67-.07-12,0-3.64,0-6.93,0-9.35,0-1.17,0-2.13,0-2.84,0-.31,0-.56,0-.77s0-.26,0-.26a.9.9,0,0,1,0,.26l0,.77c0,.71,0,1.67,0,2.84,0,2.42,0,5.71,0,9.35,0,5.36,0,10-.07,12h-.11c0-.36,0-.65,0-.89A1.71,1.71,0,0,1,398.3,170.44Z" style="fill:#ED2222"></path><path d="M409.19,170.22a1.25,1.25,0,0,1,0,.3c0,.23,0,.52,0,.88h-.1c-.05-2-.08-6.61-.08-11.92,0-3.6,0-6.86,0-9.27,0-1.15,0-2.1,0-2.8,0-.31,0-.56,0-.77a.9.9,0,0,1,0-.26.76.76,0,0,1,0,.26c0,.21,0,.46,0,.77,0,.7,0,1.65,0,2.8,0,2.41,0,5.67,0,9.27,0,5.31,0,9.89-.08,11.92h-.1c0-.36,0-.65,0-.88A1.25,1.25,0,0,1,409.19,170.22Z" style="fill:#ED2222"></path><path d="M420.07,170a1.11,1.11,0,0,1,0,.29q0,.34,0,.87H420c0-2-.07-6.55-.07-11.81,0-3.59,0-6.83,0-9.18,0-1.15,0-2.09,0-2.78,0-.31,0-.56,0-.76s0-.26,0-.26a.9.9,0,0,1,0,.26c0,.2,0,.45,0,.76,0,.69,0,1.63.05,2.78,0,2.35,0,5.59,0,9.18,0,5.26,0,9.8-.07,11.81H420q0-.53,0-.87A1.64,1.64,0,0,1,420.07,170Z" style="fill:#ED2222"></path><path d="M431,169.79a1.11,1.11,0,0,1,0,.29l0,.86h-.1c-.05-2-.08-6.48-.08-11.7,0-3.55,0-6.77,0-9.1,0-1.13,0-2.06,0-2.75l0-.75a.13.13,0,1,1,.06,0c0,.2,0,.45,0,.75,0,.69,0,1.62,0,2.75,0,2.33,0,5.55,0,9.1,0,5.22,0,9.71-.08,11.7h-.1c0-.35,0-.63,0-.86A1.11,1.11,0,0,1,431,169.79Z" style="fill:#ED2222"></path><path d="M441.84,169.61a1.25,1.25,0,0,1,0,.3c0,.22,0,.5,0,.85h-.11c0-2-.07-6.44-.07-11.62,0-3.52,0-6.72,0-9,0-1.12,0-2.05,0-2.73,0-.3,0-.55,0-.74s0-.26,0-.26a.9.9,0,0,1,0,.26c0,.19,0,.44,0,.74,0,.68,0,1.61.05,2.73,0,2.31,0,5.51,0,9,0,5.18,0,9.64-.07,11.62h-.11c0-.35,0-.63,0-.85S441.84,169.61,441.84,169.61Z" style="fill:#ED2222"></path><g style="opacity:0.30000000000000004"><path d="M343.7,212h-8.11V140.62a4.05,4.05,0,0,1,4.05-4.06h0a4.06,4.06,0,0,1,4.06,4.06Z"></path></g><g style="opacity:0.30000000000000004"><path d="M360.53,136.56h.53a3.79,3.79,0,0,1,3.79,3.79V212a0,0,0,0,1,0,0h-8.12a0,0,0,0,1,0,0V140.35A3.79,3.79,0,0,1,360.53,136.56Z"></path></g><path d="M339.28,212h-8.12V136.19a4.06,4.06,0,0,1,4.06-4.06h0a4.06,4.06,0,0,1,4.06,4.06Z" style="fill:#ebebeb"></path><path d="M339.28,212a4.13,4.13,0,0,1,0-.46c0-.33,0-.77,0-1.33,0-1.18,0-2.88,0-5.06,0-4.39-.05-10.71-.08-18.51s-.05-17.08-.08-27.38c0-5.15,0-10.56,0-16.16v-6.38a4.73,4.73,0,0,0-.3-2,3.79,3.79,0,0,0-6.69-.58,3.66,3.66,0,0,0-.55,1.4,10.06,10.06,0,0,0-.06,1.57v9.54q0,6.25,0,12.19c0,7.9,0,15.32,0,22.08-.05,13.49-.09,24.33-.11,31.11l-.11-.11,6,.06,1.56,0,.55,0-.51,0-1.54,0-6.07.06h-.11V212c0-6.78-.06-17.62-.11-31.11,0-6.76,0-14.18,0-22.08q0-5.93,0-12.19v-9.54a10.36,10.36,0,0,1,.07-1.65,4.17,4.17,0,0,1,.62-1.6,4.31,4.31,0,0,1,7.61.66,5.12,5.12,0,0,1,.33,2.23v6.41c0,5.63,0,11.06,0,16.24,0,10.33-.05,19.63-.07,27.45s-.07,14.08-.09,18.47c0,2.15,0,3.83,0,5,0,.55,0,1,0,1.29S339.28,212,339.28,212Z" style="fill:#263238"></path><path d="M359.7,212h-8.11V136.19a4.06,4.06,0,0,1,4.06-4.06h0a4.05,4.05,0,0,1,4.05,4.06Z" style="fill:#ebebeb"></path><path d="M359.7,212s0-.16,0-.46,0-.77,0-1.33c0-1.18,0-2.88,0-5.06,0-4.39-.05-10.71-.08-18.51s-.05-17.08-.08-27.38c0-5.15,0-10.56,0-16.16v-6.38a4.73,4.73,0,0,0-.3-2,3.79,3.79,0,0,0-7.24.82,10.06,10.06,0,0,0-.06,1.57v9.54q0,6.25,0,12.19c0,7.9,0,15.32,0,22.08-.05,13.49-.09,24.33-.11,31.11l-.11-.11,6,.06,1.57,0,.54,0-.5,0-1.54,0-6.07.06h-.11V212c0-6.78-.06-17.62-.11-31.11,0-6.76,0-14.18,0-22.08q0-5.93,0-12.19v-9.54a10.32,10.32,0,0,1,.06-1.65,4.19,4.19,0,0,1,.63-1.6,4.31,4.31,0,0,1,7.61.66,5.27,5.27,0,0,1,.33,2.23v6.41c0,5.63,0,11.06,0,16.24,0,10.33-.06,19.63-.08,27.45s-.06,14.08-.08,18.47c0,2.15,0,3.83,0,5,0,.55,0,1,0,1.29A1.89,1.89,0,0,1,359.7,212Z" style="fill:#263238"></path><g style="opacity:0.30000000000000004"><polygon points="291.55 119.51 334.35 101.79 334.35 98.55 291.55 119.51"></polygon></g><g style="opacity:0.30000000000000004"><polygon points="335.88 119.78 380.38 102.22 380.38 98.98 335.88 119.78"></polygon></g><rect x="288.5" y="107.95" width="50.51" height="0.99" transform="translate(-15.79 148.46) rotate(-25.99)" style="fill:#263238"></rect><rect x="331.98" y="108.77" width="50.77" height="0.99" transform="translate(-12.72 161.04) rotate(-24.96)" style="fill:#263238"></rect><g style="opacity:0.30000000000000004"><path d="M303.32,135.89a2.73,2.73,0,0,1,0-.35l0-1c0-.86,0-2.06,0-3.54l.09.09-12.26,0,.12-.13h0v4.85l-.13-.13,8.76.06,2.56,0h.7l.25,0h-.22l-.67,0-2.54,0-8.84.06h-.12v-5h0l.13-.13,12.26,0h.09V131c0,1.5,0,2.72-.05,3.59,0,.4,0,.72,0,1S303.32,135.89,303.32,135.89Z"></path></g><g style="opacity:0.30000000000000004"><rect x="296.59" y="126.18" width="12.26" height="4.87"></rect></g><g style="opacity:0.30000000000000004"><path d="M394,202.25s0-.12,0-.35,0-.57,0-1c0-.87,0-2.07-.05-3.54l.09.09-12.26,0c-.12.11.16-.16.13-.13h0v2.48c0,.81,0,1.6,0,2.36l-.12-.12,8.75.06,2.57,0,.69,0H394s-.07,0-.22,0l-.67,0-2.53,0-8.84.06h-.12v-.13c0-.76,0-1.55,0-2.36v-2.48h0s.24-.25.13-.13l12.26,0h.09v.09c0,1.5,0,2.71-.05,3.59,0,.39,0,.71,0,1A1,1,0,0,1,394,202.25Z"></path></g><g style="opacity:0.30000000000000004"><rect x="387.27" y="192.54" width="12.26" height="4.87"></rect></g><g style="opacity:0.30000000000000004"><path d="M319.89,187.22a2.73,2.73,0,0,1,0-.35c0-.25,0-.58,0-1,0-.86,0-2.06-.05-3.54l.09.09-12.26,0,.12-.13h0v4.85l-.12-.12,8.75.05,2.56,0h.7l.25,0h-.22l-.67,0-2.54,0-8.83.06h-.13v-5h0l.13-.13,12.26,0H320v.09c0,1.5,0,2.72-.05,3.59,0,.4,0,.72,0,1A1.7,1.7,0,0,1,319.89,187.22Z"></path></g><g style="opacity:0.30000000000000004"><path d="M371.59,127.78s0-.13,0-.35,0-.57,0-1c0-.86,0-2.06-.05-3.54l.09.09-12.26,0c-.12.12.16-.15.13-.13h0v2.49c0,.81,0,1.6,0,2.36l-.12-.12,8.75.06,2.57,0,.69,0h.25s-.07,0-.22,0h-.67l-2.53,0-8.84.05h-.12v-.13c0-.76,0-1.55,0-2.36v-2.49h0s.24-.24.13-.12l12.26,0h.09v.08c0,1.5,0,2.72-.05,3.6,0,.39,0,.71,0,.95A1,1,0,0,1,371.59,127.78Z"></path></g><g style="opacity:0.30000000000000004"><path d="M445.45,135.14s0-.13,0-.36,0-.57,0-1c0-.86,0-2.06-.05-3.54l.09.09-12.26,0,.13-.13h0v2.48c0,.82,0,1.61,0,2.37l-.12-.13,8.75.06,2.57,0h.69l.25,0h-.22l-.67,0-2.53,0-8.84.06h-.12v-.12c0-.76,0-1.55,0-2.37v-2.48h0s.25-.24.13-.13l12.26,0h.09v.09c0,1.5,0,2.72-.05,3.59,0,.4,0,.71,0,1A1.14,1.14,0,0,1,445.45,135.14Z"></path></g><g style="opacity:0.30000000000000004"><path d="M464.8,181a2.81,2.81,0,0,1,0-.36c0-.24,0-.57,0-1,0-.86,0-2.06-.05-3.54l.09.09-12.26,0c-.12.11.15-.16.12-.13h0V181l-.12-.13,8.75.06,2.57,0h.69l.25,0h-.22l-.67,0-2.53,0-8.84.06h-.13v-5h0l.13-.13,12.26,0h.09v.09c0,1.5,0,2.72-.05,3.59,0,.4,0,.72,0,1A2,2,0,0,1,464.8,181Z"></path></g><g style="opacity:0.30000000000000004"><rect x="387.07" y="136.01" width="12.26" height="4.87"></rect></g><g style="opacity:0.30000000000000004"><rect x="445.45" y="125.53" width="12.26" height="4.87"></rect></g><rect x="408.4" y="177.83" width="38.01" height="34.2" style="fill:#263238"></rect><rect x="423.31" y="195.19" width="10.92" height="8.43" style="fill:#ED2222"></rect><g style="opacity:0.30000000000000004"><rect x="423.31" y="195.19" width="10.92" height="8.43"></rect></g><path d="M431.5,203.55s0-1.88,0-4.19,0-4.2,0-4.2,0,1.88,0,4.2S431.51,203.55,431.5,203.55Z" style="fill:#263238"></path><rect x="432.47" y="201.69" width="0.84" height="0.95" style="fill:#f5f5f5"></rect><rect x="426.65" y="195.21" width="1.24" height="1.8" style="fill:#263238"></rect><rect x="426.65" y="201.79" width="1.24" height="1.8" style="fill:#263238"></rect><path d="M434.14,195.19h0Z" style="fill:#263238"></path><rect x="432.41" y="195.18" width="10.92" height="8.43" style="fill:#ED2222"></rect><path d="M440.59,203.54s0-1.88,0-4.19,0-4.2,0-4.2,0,1.88,0,4.2S440.6,203.54,440.59,203.54Z" style="fill:#263238"></path><rect x="441.57" y="201.68" width="0.84" height="0.95" style="fill:#f5f5f5"></rect><g style="opacity:0.5"><rect x="435.74" y="195.2" width="1.24" height="1.8" style="fill:#fff"></rect></g><g style="opacity:0.5"><rect x="435.74" y="201.78" width="1.24" height="1.8" style="fill:#fff"></rect></g><path d="M443.24,195.18h0Z" style="fill:#263238"></path><rect x="433.02" y="186.75" width="10.92" height="8.43" style="fill:#ED2222"></rect><path d="M441.21,195.12s0-1.88,0-4.2,0-4.19,0-4.19,0,1.87,0,4.19S441.22,195.12,441.21,195.12Z" style="fill:#263238"></path><rect x="442.18" y="193.26" width="0.84" height="0.95" style="fill:#f5f5f5"></rect><rect x="436.35" y="186.77" width="1.24" height="1.8" style="fill:#263238"></rect><rect x="436.35" y="193.35" width="1.24" height="1.8" style="fill:#263238"></rect><path d="M443.85,186.75h0Z" style="fill:#263238"></path><rect x="432.77" y="203.61" width="10.92" height="8.43" style="fill:#ED2222"></rect><g style="opacity:0.30000000000000004"><rect x="432.77" y="203.61" width="10.92" height="8.43"></rect></g><path d="M441,212s0-1.88,0-4.19,0-4.2,0-4.2,0,1.88,0,4.2S441,212,441,212Z" style="fill:#263238"></path><rect x="441.93" y="210.11" width="0.84" height="0.95" style="fill:#f5f5f5"></rect><rect x="436.1" y="203.63" width="1.24" height="1.8" style="fill:#263238"></rect><rect x="436.1" y="210.21" width="1.24" height="1.8" style="fill:#263238"></rect><path d="M443.6,203.61h0Z" style="fill:#263238"></path><rect x="421.31" y="203.61" width="10.92" height="8.43" style="fill:#ED2222"></rect><path d="M429.5,212s0-1.88,0-4.19,0-4.2,0-4.2,0,1.88,0,4.2S429.51,212,429.5,212Z" style="fill:#263238"></path><rect x="430.47" y="210.11" width="0.84" height="0.95" style="fill:#f5f5f5"></rect><g style="opacity:0.5"><rect x="424.65" y="203.63" width="1.24" height="1.8" style="fill:#fff"></rect></g><g style="opacity:0.5"><rect x="424.65" y="210.21" width="1.24" height="1.8" style="fill:#fff"></rect></g><path d="M432.14,203.61h0Z" style="fill:#263238"></path><path d="M483.1,212c0,.15-44.65.26-99.72.26s-99.73-.11-99.73-.26,44.64-.26,99.73-.26S483.1,211.89,483.1,212Z" style="fill:#263238"></path></g><g id="freepik--Store--inject-41"><rect x="42.18" y="105.46" width="142.28" height="110.93" style="fill:#ebebeb"></rect><path d="M184.46,216.4s0-.7,0-2,0-3.33,0-5.92c0-5.18,0-12.77,0-22.46,0-19.35-.07-47.06-.11-80.52l.21.22-142.27,0h0l.26-.26c0,40,0,77.82,0,110.94l-.23-.24,102.75.12,29.13.06,7.73,0,2,0h0l-2,0-7.68,0-29.08.07-102.9.11h-.24v-.23c0-33.12,0-70.94,0-110.94v-.26h.27l142.27,0h.22v.21c-.05,33.52-.09,61.27-.12,80.66,0,9.66,0,17.24-.05,22.41,0,2.57,0,4.53,0,5.87S184.46,216.4,184.46,216.4Z" style="fill:#263238"></path><polygon points="39.64 98.95 28.07 136.59 194.6 136.59 185.19 98.95 39.64 98.95" style="fill:#ED2222"></polygon><path d="M28.07,136.59a9.14,9.14,0,0,0,18.27,0Z" style="fill:#ED2222"></path><path d="M46.61,136.59a9.13,9.13,0,0,0,18.26,0Z" style="fill:#ED2222"></path><path d="M65.14,136.59a9.13,9.13,0,0,0,18.26,0Z" style="fill:#ED2222"></path><path d="M83.67,136.59a9.14,9.14,0,0,0,18.27,0Z" style="fill:#ED2222"></path><path d="M102.2,136.59a9.14,9.14,0,0,0,18.27,0Z" style="fill:#ED2222"></path><path d="M120.74,136.59a9.13,9.13,0,0,0,18.26,0Z" style="fill:#ED2222"></path><path d="M139.27,136.59a9.13,9.13,0,0,0,18.26,0Z" style="fill:#ED2222"></path><path d="M157.8,136.59a9.14,9.14,0,0,0,18.27,0Z" style="fill:#ED2222"></path><path d="M176.34,136.59a9.13,9.13,0,0,0,18.26,0Z" style="fill:#ED2222"></path><path d="M194.54,136.67c0,.14-37.24.26-83.16.26s-83.16-.12-83.16-.26,37.23-.26,83.16-.26S194.54,136.52,194.54,136.67Z" style="fill:#263238"></path><rect x="138.4" y="152.2" width="30.03" height="64.2" style="fill:#fff"></rect><path d="M168.43,152.2a1.71,1.71,0,0,1,0,.3c0,.22,0,.51,0,.9,0,.82,0,2,0,3.52,0,3.11,0,7.61.07,13.27,0,11.42.07,27.49.12,46.21v.25H138.41c-.53-.52-.15-.15-.27-.28h0v-9.19c0-3,0-6,0-9,0-5.89,0-11.57,0-17,0-10.85,0-20.67.05-29V152h.19l22,.1,5.95,0,1.54,0,.51,0-.55,0-1.57,0-6,0-21.91.1.19-.19c0,8.35,0,18.17,0,29,0,5.43,0,11.11,0,17v18.15h0c-.11-.11.26.28-.25-.24h30l-.25.25c0-18.65.09-34.67.12-46,0-5.68,0-10.21.07-13.33,0-1.54,0-2.74,0-3.58,0-.39,0-.69,0-.92S168.43,152.21,168.43,152.2Z" style="fill:#263238"></path><rect x="141.41" y="177.81" width="3.99" height="12.98" style="fill:#e0e0e0"></rect><rect x="146.08" y="165.94" width="16.2" height="7.98" rx="1.63" style="fill:#ED2222"></rect><path d="M160.65,173.92s.16,0,.44-.11A1.65,1.65,0,0,0,162,173a5.49,5.49,0,0,0,.12-2c0-.83,0-1.76,0-2.78a2.18,2.18,0,0,0-.28-1.44,1.51,1.51,0,0,0-1.37-.59l-3.87,0-8.86,0a1.38,1.38,0,0,0-1.36,1.18c0,.69,0,1.5,0,2.22v2.71a1.32,1.32,0,0,0,.08.44,1.43,1.43,0,0,0,.52.69,1.42,1.42,0,0,0,.82.25h1l1.88,0,3.37,0,4.89.08a12.87,12.87,0,0,1,1.79.1,11.14,11.14,0,0,1-1.79.1l-4.89.09-3.37,0h-2.86a1.9,1.9,0,0,1-1.09-.32,1.84,1.84,0,0,1-.71-.93,1.71,1.71,0,0,1-.11-.59v-.54c0-.71,0-1.44,0-2.18s0-1.46,0-2.3a1.89,1.89,0,0,1,1.87-1.62l8.86,0,3.87,0a1.86,1.86,0,0,1,2,1.65c0,.31,0,.54,0,.81,0,1,0,1.95,0,2.78,0,.4,0,.79,0,1.14a1.94,1.94,0,0,1-.21,1,1.7,1.7,0,0,1-1.07.83A.89.89,0,0,1,160.65,173.92Z" style="fill:#263238"></path><path d="M158.52,165.94a9,9,0,0,1-1.41-1.54l-1.42-1.77-.82-1-.43-.56c-.17-.21-.24-.32-.41-.37a.53.53,0,0,0-.46.08,2.47,2.47,0,0,0-.37.49l-.76,1.11-1.3,1.84a8.4,8.4,0,0,1-1.31,1.63,8.4,8.4,0,0,1,1-1.83l1.21-1.91.74-1.12a2.36,2.36,0,0,1,.48-.62,1,1,0,0,1,.92-.17,1.28,1.28,0,0,1,.67.56l.42.56.8,1.07,1.33,1.83A7.76,7.76,0,0,1,158.52,165.94Z" style="fill:#263238"></path><path d="M149.16,169.73a1.31,1.31,0,1,1,1.31,1.22A1.24,1.24,0,0,1,149.16,169.73Zm1.94,0a.63.63,0,1,0-.63.67A.63.63,0,0,0,151.1,169.73Z" style="fill:#fff"></path><path d="M154.25,169.42c0,.53-.41.87-1.05.87h-.41v.61h-.66v-2.35h1.07C153.84,168.55,154.25,168.88,154.25,169.42Zm-.68,0c0-.22-.13-.35-.41-.35h-.37v.69h.37C153.44,169.76,153.57,169.64,153.57,169.42Z" style="fill:#fff"></path><path d="M156.46,170.39v.51h-1.89v-2.35h1.84v.51h-1.18v.4h1v.5h-1v.43Z" style="fill:#fff"></path><path d="M159.06,168.55v2.35h-.54l-1-1.25v1.25h-.65v-2.35h.55l1,1.25v-1.25Z" style="fill:#fff"></path><path d="M148.31,197.44a100.37,100.37,0,0,1,5.83-8.42c3.33-4.56,6.13-8.19,6.24-8.11a97.8,97.8,0,0,1-5.82,8.42C151.22,193.89,148.42,197.53,148.31,197.44Z" style="fill:#263238"></path><path d="M153.93,196.05c-.11-.11,2-2.4,4.28-5.43s4-5.63,4.12-5.55a7,7,0,0,1-.93,1.81,43.29,43.29,0,0,1-2.77,4.06,45.45,45.45,0,0,1-3.19,3.73A7.5,7.5,0,0,1,153.93,196.05Z" style="fill:#263238"></path><rect x="46.61" y="158.24" width="13.83" height="5.38" style="fill:#f5f5f5"></rect><rect x="42.43" y="163.62" width="11.34" height="5.38" style="fill:#e0e0e0"></rect><rect x="80.41" y="197.49" width="13.83" height="5.38" style="fill:#f5f5f5"></rect><rect x="125.17" y="183.8" width="6.62" height="5.38" style="fill:#e0e0e0"></rect><rect x="168.67" y="178.61" width="12.94" height="5.38" style="fill:#e0e0e0"></rect><rect x="113.5" y="205.25" width="13.23" height="5.38" style="fill:#e0e0e0"></rect><rect x="45.02" y="200.17" width="13.23" height="5.38" style="fill:#f5f5f5"></rect><rect x="130.83" y="154.98" width="7.24" height="5.38" style="fill:#f5f5f5"></rect><rect x="73.14" y="202.86" width="13.66" height="5.38" style="fill:#e0e0e0"></rect><rect x="60.44" y="152.2" width="64.73" height="45.28" style="fill:#fff"></rect><path d="M125.17,197.49s0-.3,0-.84,0-1.37,0-2.41c0-2.12,0-5.2-.05-9.14,0-7.88-.07-19.17-.11-32.9l.21.21-64.73.05h0l.26-.26c0,16.19,0,31.56,0,45.29l-.23-.24,46.62.12,13.32.06,3.55,0h.92l.32,0H124l-3.5,0-13.26.07-46.78.11H60.2v-.23c0-13.73,0-29.1,0-45.29v-.26h.26l64.73.05h.21v.21c0,13.78-.08,25.12-.11,33,0,3.92,0,7,0,9.09q0,1.55,0,2.37C125.18,197.22,125.17,197.49,125.17,197.49Z" style="fill:#263238"></path><path d="M92.42,185.39a4.11,4.11,0,0,1,.64-.88c.43-.55,1.08-1.33,1.89-2.28,1.62-1.9,3.9-4.49,6.48-7.29s5-5.29,6.74-7.06c.88-.88,1.6-1.59,2.11-2.07s.8-.73.83-.7a4.52,4.52,0,0,1-.68.84l-2,2.19-6.62,7.15-6.59,7.19-2,2.16A4.59,4.59,0,0,1,92.42,185.39Z" style="fill:#263238"></path><path d="M83.27,184.59c-.1-.1,3.51-3.84,8.06-8.34s8.32-8.07,8.42-8-3.5,3.83-8,8.34S83.37,184.69,83.27,184.59Z" style="fill:#263238"></path><path d="M81.1,176.25A35,35,0,0,1,85,171.68a35.6,35.6,0,0,1,4.26-4.23A33.9,33.9,0,0,1,85.36,172,34.2,34.2,0,0,1,81.1,176.25Z" style="fill:#263238"></path><path d="M46.34,136.59c-.15,0,1.35-8.48,3.33-18.87S53.38,98.92,53.52,99s-1.35,8.47-3.34,18.87S46.48,136.61,46.34,136.59Z" style="fill:#263238"></path><path d="M65,136.59c-.14,0,1.35-8.48,3.34-18.87S72.08,98.92,72.22,99s-1.36,8.47-3.34,18.87S65.17,136.61,65,136.59Z" style="fill:#263238"></path><path d="M83.73,136.59c-.14,0,1.35-8.48,3.33-18.87S90.77,98.92,90.91,99s-1.35,8.47-3.34,18.87S83.87,136.61,83.73,136.59Z" style="fill:#263238"></path><path d="M102.42,136.59c-.14,0,.85-8.38,2.22-18.67s2.59-18.61,2.73-18.59-.85,8.37-2.22,18.66S102.56,136.61,102.42,136.59Z" style="fill:#263238"></path><path d="M121.12,136.59c-.15,0,.64-8.37,1.76-18.66s2.15-18.62,2.29-18.61-.65,8.37-1.77,18.67S121.26,136.6,121.12,136.59Z" style="fill:#263238"></path><path d="M139.81,136.59c-.14,0,.29-8.36,1-18.65s1.33-18.62,1.48-18.62-.29,8.36-1,18.65S140,136.6,139.81,136.59Z" style="fill:#263238"></path><path d="M158.51,136.59c-.15,0-.71-8.31-1.27-18.58s-.88-18.6-.74-18.6.71,8.31,1.26,18.57S158.65,136.58,158.51,136.59Z" style="fill:#263238"></path><path d="M177.2,136.59c-.14,0-1.75-8.28-3.59-18.55s-3.22-18.61-3.08-18.63,1.75,8.27,3.59,18.54S177.34,136.56,177.2,136.59Z" style="fill:#263238"></path><path d="M208.21,216.4c0,.14-41.05.26-91.67.26s-91.68-.12-91.68-.26,41-.26,91.68-.26S208.21,216.25,208.21,216.4Z" style="fill:#263238"></path></g><g id="freepik--speech-bubble--inject-41"><path d="M279.08,288.71l4.65-8.2a22,22,0,1,1,5.26,5.85h0Z" style="fill:#fff"></path><path d="M279.08,288.71l9.94-2.26a.08.08,0,0,0,.06-.1s0,0,0,0h0l-.12.12a22,22,0,0,0,10.53,4.44,19,19,0,0,0,3.48.18c.6,0,1.21-.05,1.82-.1l1.86-.28a22.07,22.07,0,0,0,13.72-8.81,21.73,21.73,0,0,0,3.71-8.48,22.43,22.43,0,0,0-.25-9.77,21.68,21.68,0,0,0-4.71-9,22.06,22.06,0,0,0-8.46-6.05,22.63,22.63,0,0,0-9.85-1.51,21.83,21.83,0,0,0-9,2.67,22.39,22.39,0,0,0-10.42,12.83,24,24,0,0,0-.95,7.15,21.75,21.75,0,0,0,3.29,10.88v-.08c-2.9,5.23-4.31,7.75-4.58,8.24.28-.49,1.73-3,4.72-8.16a.08.08,0,0,0,0-.08,21.82,21.82,0,0,1-3.19-10.81,23.4,23.4,0,0,1,1-7.06A22.1,22.1,0,0,1,291.9,250a21.43,21.43,0,0,1,8.91-2.62,22.07,22.07,0,0,1,9.7,1.5,21.8,21.8,0,0,1,8.34,5.95,21.35,21.35,0,0,1,4.64,8.9,22.1,22.1,0,0,1,.26,9.63,21.71,21.71,0,0,1-3.64,8.37,21.92,21.92,0,0,1-13.53,8.73l-1.84.28c-.6.05-1.2.07-1.8.1a18.44,18.44,0,0,1-3.43-.16A21.85,21.85,0,0,1,289,286.3a.08.08,0,0,0-.11,0,.08.08,0,0,0,0,.1h0l0-.13Z" style="fill:#263238"></path><path d="M307.06,274.8h-10.3a.49.49,0,0,1-.49-.41l-2.37-11.85H291a.5.5,0,0,1-.5-.5.5.5,0,0,1,.5-.5h3.3a.51.51,0,0,1,.49.41l2.37,11.85h9.89a.5.5,0,0,1,.5.5A.5.5,0,0,1,307.06,274.8Z" style="fill:#263238"></path><path d="M296.32,272.62a.5.5,0,0,1-.49-.43.49.49,0,0,1,.42-.56l10-1.51.72-4.26H295a.5.5,0,0,1-.5-.5.5.5,0,0,1,.5-.5h12.64a.49.49,0,0,1,.38.18.52.52,0,0,1,.11.4l-.89,5.21a.5.5,0,0,1-.42.41l-10.39,1.55Z" style="fill:#263238"></path><path d="M298.11,278.56a1.73,1.73,0,1,1,1.72-1.72A1.72,1.72,0,0,1,298.11,278.56Zm0-2.45a.73.73,0,1,0,.72.73A.73.73,0,0,0,298.11,276.11Z" style="fill:#263238"></path><path d="M305.44,278.56a1.73,1.73,0,1,1,1.72-1.72A1.72,1.72,0,0,1,305.44,278.56Zm0-2.45a.73.73,0,1,0,.72.73A.73.73,0,0,0,305.44,276.11Z" style="fill:#263238"></path><path d="M312.71,265.36a4.25,4.25,0,1,1-4.25-4.25A4.24,4.24,0,0,1,312.71,265.36Z" style="fill:#ED2222"></path><path d="M308,267.16a.23.23,0,0,1-.16-.06l-1.42-1.29a.25.25,0,0,1,.34-.37l1.22,1.11,2.25-2.56a.25.25,0,0,1,.37.33l-2.41,2.76a.21.21,0,0,1-.17.08Z" style="fill:#fff"></path></g><g id="freepik--Character--inject-41"><polygon points="252.76 458.48 264.4 453.29 255.76 434.75 243.39 441.28 252.76 458.48" style="fill:#ffbf9d"></polygon><path d="M245,441.14l-17.81,10-7.21,1c-2.74.38-1.91,2.53-1.53,5.27l4.64,33.4s3.57,1.11,4.28-1.5,8.41-22.72,8.41-22.72l17-8.19Z" style="fill:#e0e0e0"></path><path d="M245,441.14s0,.09.14.29.24.49.41.87l1.56,3.4,5.78,12.69.05.11-.11.05-17,8.22.07-.08c-1.54,4.09-3.2,8.48-4.94,13.07-.85,2.3-1.73,4.66-2.59,7.07l-.63,1.82c-.1.31-.17.6-.29.92a2.09,2.09,0,0,1-.22.48l-.14.22-.18.2a2.78,2.78,0,0,1-1.88.77,5.71,5.71,0,0,1-2-.23l-.11,0v-.12l-.05-.34c-1.26-9.08-2.46-17.74-3.55-25.62q-.41-3-.79-5.77c-.13-.93-.25-1.86-.4-2.76a8.62,8.62,0,0,1-.19-2.73,1.8,1.8,0,0,1,.75-1.18A3.41,3.41,0,0,1,220,452l2.5-.34,4.7-.64h0l13.1-7.3,3.55-2,.91-.5.31-.16-.32.2-.92.53-3.54,2-13,7.39h0l-4.7.66-2.5.35a3.07,3.07,0,0,0-1.16.39,1.44,1.44,0,0,0-.62,1,8.48,8.48,0,0,0,.19,2.63c.16.91.28,1.84.41,2.77q.39,2.81.81,5.76c1.1,7.89,2.31,16.54,3.57,25.62,0,.12,0,.24.05.35l-.12-.15a5.76,5.76,0,0,0,1.89.22,2.51,2.51,0,0,0,1.66-.67,4.36,4.36,0,0,0,.75-1.69c.2-.61.41-1.22.63-1.82.86-2.42,1.74-4.77,2.6-7.07,1.74-4.6,3.41-9,5-13.07l0-.06,0,0,17-8.16-.06.16-5.63-12.68c-.65-1.49-1.16-2.65-1.52-3.45l-.39-.9C245.06,441.25,245,441.14,245,441.14Z" style="fill:#263238"></path><path d="M245.85,439l-4.29,2.76a1.53,1.53,0,0,0-.53,2l8,15.77a1.52,1.52,0,0,0,1.9.73l4.63-1.79a1.51,1.51,0,0,0,.81-2.09L248,439.6A1.52,1.52,0,0,0,245.85,439Z" style="fill:#e0e0e0"></path><path d="M249.32,460.12a16.3,16.3,0,0,1-1.53-2.28c-.88-1.44-2.06-3.47-3.24-5.77s-2.12-4.45-2.74-6c-.31-.79-.55-1.43-.7-1.88a3.41,3.41,0,0,1-.19-.72,21.84,21.84,0,0,1,1.16,2.48c.69,1.55,1.67,3.66,2.84,5.95s2.31,4.34,3.13,5.81A19.86,19.86,0,0,1,249.32,460.12Z" style="fill:#263238"></path><path d="M242.38,445.65a7.7,7.7,0,0,1,7.1-3.12,18.19,18.19,0,0,0-3.8,1A17.46,17.46,0,0,0,242.38,445.65Z" style="fill:#263238"></path><path d="M244.59,451.81a17.68,17.68,0,0,1,3.62-2.27,17.19,17.19,0,0,1,3.92-1.7,29.29,29.29,0,0,1-3.73,2.06A30,30,0,0,1,244.59,451.81Z" style="fill:#263238"></path><path d="M248.44,457.79a10.35,10.35,0,0,0,6.31-4.8,2.75,2.75,0,0,1-.45,1.14,7.76,7.76,0,0,1-2,2.22,7.6,7.6,0,0,1-2.67,1.31A2.5,2.5,0,0,1,248.44,457.79Z" style="fill:#263238"></path><path d="M219,459.84c0-.07.62-.22,1.54-.68a9.09,9.09,0,0,0,4.87-6c.26-1,.28-1.65.35-1.65a4,4,0,0,1-.06,1.71,8.36,8.36,0,0,1-5,6.24A4,4,0,0,1,219,459.84Z" style="fill:#263238"></path><path d="M221.74,481a2.64,2.64,0,0,1,1.18-.48,5.45,5.45,0,0,1,3.07.19,7.47,7.47,0,0,1,2.58,1.67c.56.55.84.95.8,1s-.4-.28-1-.76a9.59,9.59,0,0,0-2.53-1.5,6,6,0,0,0-2.88-.29A8.84,8.84,0,0,1,221.74,481Z" style="fill:#263238"></path><path d="M203.67,416.85s-17.46-2.18-23-1.05-16.06,7.72-15.05,17.7,7.61,17.16,15.7,18.42,53.28,5.84,70.78,5.61c14.82-.2,22.86-3.95,21.18-6.26,0,0,15.6-5.93,17.22-6.63,1.26-.54,24.19-11.89,26.59-16.07s8.09-18.33-1.89-25.41-27.06-2.28-30.1,0c-1.49,1.12-4.14,1.89-9.49,5.79l-5.1-3.5c-.36.27-41.42,3.14-57.67,3.88C210.06,409.46,203.67,416.85,203.67,416.85Z" style="fill:#263238"></path><path d="M252.68,441.26c-.45-1.94-.65-2.65-.15-3.9a11.32,11.32,0,0,1,2.32-3.28,3.37,3.37,0,0,1,2.23-1.4c1.15,0,1.95,1.08,2.56,2.05,2.22,3.56,4.59,7,7.11,10.41a17.94,17.94,0,0,0,5.07,5.09c.77.45,1.72,1,1.68,1.87,0,.7-.7,1.18-1.31,1.52a27.72,27.72,0,0,1-3.58,1.67,6.94,6.94,0,0,1-3.74.6,7.07,7.07,0,0,1-3.09-1.69,27.86,27.86,0,0,1-9.23-13.36" style="fill:#263238"></path><path d="M252.55,440.84s0,.05.07.15.1.29.17.48c.15.42.38,1,.71,1.8a26.78,26.78,0,0,0,3.67,6.06,32.15,32.15,0,0,0,3.35,3.58c.66.59,1.35,1.19,2.1,1.75a5.49,5.49,0,0,0,2.56,1.12,6.82,6.82,0,0,0,2.92-.47,29.4,29.4,0,0,0,2.91-1.26,15,15,0,0,0,1.42-.78,1.68,1.68,0,0,0,.9-1.14,1.49,1.49,0,0,0-.77-1.23c-.44-.32-1-.57-1.44-.91a20.36,20.36,0,0,1-4.62-4.9q-1.94-2.62-3.62-5.1c-1.12-1.65-2.15-3.24-3.09-4.75a8,8,0,0,0-1.52-2,2,2,0,0,0-1-.44,1.85,1.85,0,0,0-1,.24,6.85,6.85,0,0,0-1.56,1.42,18.87,18.87,0,0,0-1.22,1.46,5.23,5.23,0,0,0-1.12,2.76,9.12,9.12,0,0,0,.25,1.9l.1.5c0,.11,0,.17,0,.17l-.05-.17c0-.13-.08-.29-.13-.48a8.27,8.27,0,0,1-.33-1.93,5.3,5.3,0,0,1,1.11-2.86,15.61,15.61,0,0,1,1.21-1.5,6.73,6.73,0,0,1,1.6-1.48,2,2,0,0,1,1.17-.28,2.17,2.17,0,0,1,1.17.48,7.86,7.86,0,0,1,1.6,2c1,1.49,2,3.07,3.11,4.72s2.34,3.34,3.63,5.08a20.08,20.08,0,0,0,4.54,4.81c.46.33,1,.57,1.45.92a2.59,2.59,0,0,1,.65.63,1.36,1.36,0,0,1,.26.9,2,2,0,0,1-1.05,1.41c-.49.3-1,.55-1.46.8a29,29,0,0,1-3,1.26,7,7,0,0,1-3.07.47,5.63,5.63,0,0,1-2.7-1.19,27.07,27.07,0,0,1-2.11-1.78,30.66,30.66,0,0,1-3.35-3.64,25.27,25.27,0,0,1-3.6-6.16,17.23,17.23,0,0,1-.65-1.83c-.06-.2-.1-.36-.14-.49S252.55,440.84,252.55,440.84Z" style="fill:#455a64"></path><path d="M294.46,404.88a4,4,0,0,0-.48,0,10.85,10.85,0,0,0-1.32.31c-1.13.33-2.76.88-4.76,1.59-1,.35-2.12.75-3.27,1.11a12.42,12.42,0,0,0-3,2.47c-2,1.94-4.23,4.09-6.53,6.37-4.6,4.56-8.63,8.81-11.46,12-1.43,1.58-2.55,2.88-3.33,3.77l-.89,1a2.4,2.4,0,0,1-.33.34,2.61,2.61,0,0,1,.28-.39l.84-1.07c.75-.93,1.84-2.25,3.24-3.85,2.79-3.2,6.81-7.48,11.41-12.05,2.29-2.28,4.52-4.42,6.55-6.35a12,12,0,0,1,3.14-2.5c1.23-.38,2.3-.74,3.31-1.08,2-.68,3.65-1.2,4.81-1.49a8.7,8.7,0,0,1,1.35-.25,1.06,1.06,0,0,1,.36,0Z" style="fill:#455a64"></path><path d="M233.81,437.53a1.72,1.72,0,0,1-.45-.19l-1.28-.63-4.65-2.37-6.88-3.54a67.54,67.54,0,0,0-8.56-4,24.64,24.64,0,0,0-4.74-1.11A7.4,7.4,0,0,1,205,425a6.27,6.27,0,0,1-1.71-1.51,6.46,6.46,0,0,0-3.38-2.11,12.32,12.32,0,0,0-3.53-.39c-2.19.07-4,.32-5.2.32a13.87,13.87,0,0,1-1.43,0l-.49-.06a2.38,2.38,0,0,1,.5,0c.32,0,.8,0,1.41,0,1.23,0,3-.32,5.2-.43a12.6,12.6,0,0,1,3.62.36,7.64,7.64,0,0,1,1.89.78,6.6,6.6,0,0,1,1.65,1.39,5.83,5.83,0,0,0,1.62,1.44,7,7,0,0,0,2.18.66,24.3,24.3,0,0,1,4.8,1.12,66.8,66.8,0,0,1,8.59,4l6.84,3.62,4.61,2.46,1.24.68A2.46,2.46,0,0,1,233.81,437.53Z" style="fill:#455a64"></path><polygon points="242.3 459.76 230.34 457.33 234.57 438.19 247.49 441.74 242.3 459.76" style="fill:#ffbf9d"></polygon><path d="M245.94,441.94l18.74,5.7,5.81-.47a3.3,3.3,0,0,1,3.55,3l2.71,33.69s-4,.91-5.16-1.38-11.74-18.63-11.74-18.63l-17.6-4.13Z" style="fill:#e0e0e0"></path><path d="M245.94,441.94l-.06.33q-.06.33-.18.93c-.16.82-.4,2-.7,3.54-.62,3.07-1.52,7.51-2.63,13l-.09-.14,17.61,4.1H260l0,0c2.23,3.5,4.63,7.23,7.14,11.15,1.24,2,2.51,4,3.77,6,.31.51.62,1.06.92,1.57a2.6,2.6,0,0,0,1.32,1,7,7,0,0,0,3.57.13l-.13.18,0-.2c-.69-8.66-1.35-16.91-1.95-24.43-.15-1.88-.3-3.71-.44-5.5-.07-.89-.14-1.77-.21-2.63,0-.43,0-.88-.11-1.27a3.19,3.19,0,0,0-.45-1.13,3.23,3.23,0,0,0-1.89-1.35,8.28,8.28,0,0,0-2.33,0l-4.49.35h-.05L251,443.54l-3.74-1.17-1-.31-.34-.12.32.09,1,.28,3.72,1.1,13.78,4.11h-.05l4.49-.37,1.18-.1a4,4,0,0,1,1.24.08,3.44,3.44,0,0,1,2.06,1.47,3.26,3.26,0,0,1,.49,1.22c.08.45.09.87.13,1.3.07.87.14,1.75.22,2.64.14,1.78.29,3.62.45,5.5.61,7.52,1.28,15.77,2,24.42l0,.2V484l-.15,0a7.1,7.1,0,0,1-3.77-.14,2.87,2.87,0,0,1-1.49-1.19l-.92-1.58c-1.26-2.06-2.53-4.07-3.77-6-2.5-3.92-4.88-7.66-7.12-11.16l.1.07-17.6-4.16-.11,0,0-.12c1.18-5.53,2.12-10,2.78-13.07.33-1.51.58-2.69.75-3.5.09-.39.16-.68.2-.9S245.94,441.94,245.94,441.94Z" style="fill:#263238"></path><path d="M244.49,439.25l5.33,2a1.55,1.55,0,0,1,1,1.83l-4.44,17.28a1.54,1.54,0,0,1-1.72,1.14l-5-.75a1.54,1.54,0,0,1-1.26-1.88L243.1,440A1.05,1.05,0,0,1,244.49,439.25Z" style="fill:#e0e0e0"></path><path d="M244.49,439.25a1.23,1.23,0,0,0-.56,0,1,1,0,0,0-.56.34,1.82,1.82,0,0,0-.31.86c-.35,1.43-.83,3.45-1.42,5.92s-1.34,5.47-2.15,8.77l-.62,2.53c-.11.43-.21.86-.32,1.3a1.34,1.34,0,0,0,.32,1.13,1.25,1.25,0,0,0,.49.36,2.07,2.07,0,0,0,.64.14l1.41.21,2.87.43a2.88,2.88,0,0,0,.69.07,1.44,1.44,0,0,0,.6-.21,1.48,1.48,0,0,0,.44-.46,2.22,2.22,0,0,0,.22-.63l.71-2.73c.46-1.79.91-3.51,1.33-5.16.86-3.28,1.63-6.24,2.29-8.73a2.35,2.35,0,0,0,.13-.88,1.4,1.4,0,0,0-.31-.75c-.33-.44-.91-.53-1.37-.73l-2.45-.94-1.54-.6a4.25,4.25,0,0,1-.53-.23,2.85,2.85,0,0,1,.55.16l1.57.55,2.46.88.75.26a1.74,1.74,0,0,1,.73.51,1.65,1.65,0,0,1,.38.86,2.59,2.59,0,0,1-.14,1l-2.21,8.75-1.32,5.16-.7,2.74a2.48,2.48,0,0,1-.25.72,1.76,1.76,0,0,1-.55.57,1.72,1.72,0,0,1-.76.26,1.41,1.41,0,0,1-.41,0l-.36-.05-2.87-.44-1.41-.21a2.84,2.84,0,0,1-.72-.16,1.7,1.7,0,0,1-1-1.87c.1-.47.22-.89.33-1.32.21-.86.42-1.71.63-2.53.83-3.29,1.59-6.25,2.22-8.75l1.53-5.89a2,2,0,0,1,.36-.9,1.07,1.07,0,0,1,.63-.34.94.94,0,0,1,.43,0C244.45,439.22,244.49,439.24,244.49,439.25Z" style="fill:#263238"></path><path d="M249.86,445.23a6.44,6.44,0,0,0-3.63-1.8,6.57,6.57,0,0,0-4,.28,18.39,18.39,0,0,1,4,.13A17.82,17.82,0,0,1,249.86,445.23Z" style="fill:#263238"></path><path d="M248.53,451.72a27,27,0,0,0-7.8-2.21,28.89,28.89,0,0,0,3.88,1.19A27.87,27.87,0,0,0,248.53,451.72Z" style="fill:#263238"></path><path d="M246.54,458.51a13.9,13.9,0,0,1-4-.95,13.75,13.75,0,0,1-3.3-2.4s.18.46.7,1a7.78,7.78,0,0,0,5.33,2.46A2.58,2.58,0,0,0,246.54,458.51Z" style="fill:#263238"></path><path d="M274.16,454c0-.07-.63-.08-1.59-.32a8.72,8.72,0,0,1-5.81-4.62c-.44-.89-.59-1.49-.66-1.48a3.9,3.9,0,0,0,.41,1.59,8,8,0,0,0,2.39,3.16,8.24,8.24,0,0,0,3.62,1.63A3.85,3.85,0,0,0,274.16,454Z" style="fill:#263238"></path><path d="M276,474.38a2.66,2.66,0,0,0-1.21-.21A5.24,5.24,0,0,0,272,475a7.39,7.39,0,0,0-2.07,2.1c-.41.63-.59,1.06-.54,1.08s.31-.34.77-.92a9,9,0,0,1,2.05-1.92,5.82,5.82,0,0,1,2.64-.88A7.36,7.36,0,0,0,276,474.38Z" style="fill:#263238"></path><path d="M234.65,459.33c3.44-4.48,4.83-10.25,5.08-15.89a7.09,7.09,0,0,0-.56-3.69,6.5,6.5,0,0,0-2.13-2.14,23.5,23.5,0,0,0-4.07-2.27,1.51,1.51,0,0,0-1.3-.12c-.47.26-.54.88-.56,1.42a53,53,0,0,1-4.69,19.62,1.88,1.88,0,0,0,1.46,2.65l3.24.42A11.63,11.63,0,0,0,234.65,459.33Z" style="fill:#263238"></path><path d="M234.65,459.33s-.05,0-.16.05-.26.05-.46.07a11.68,11.68,0,0,1-1.82.06c-.79,0-1.74-.18-2.84-.31-.56-.08-1.13-.12-1.79-.24a2,2,0,0,1-1.33-2.59c.14-.36.29-.69.44-1,.3-.71.6-1.44.88-2.21a51.63,51.63,0,0,0,1.6-5A54.43,54.43,0,0,0,231,436.23a2,2,0,0,1,.27-.83,1,1,0,0,1,.8-.46,3.77,3.77,0,0,1,1.57.5,23.44,23.44,0,0,1,2.71,1.48,11.66,11.66,0,0,1,2.37,1.86,4.55,4.55,0,0,1,1.16,2.65,14.75,14.75,0,0,1,0,2.74c-.05.88-.14,1.73-.25,2.55a31.44,31.44,0,0,1-.92,4.51,23.65,23.65,0,0,1-2.61,6.12,16,16,0,0,1-1,1.5l-.29.37c-.06.08-.1.12-.1.11s0-.05.08-.14l.26-.39c.24-.33.57-.85,1-1.52a25.29,25.29,0,0,0,2.49-6.11,34.58,34.58,0,0,0,.87-4.48c.09-.82.18-1.67.23-2.54a15,15,0,0,0,0-2.68,4.31,4.31,0,0,0-1.09-2.47,11.48,11.48,0,0,0-2.31-1.79,21.52,21.52,0,0,0-2.68-1.46,3.44,3.44,0,0,0-1.4-.46c-.47,0-.7.48-.74,1a53.84,53.84,0,0,1-1.83,11.93c-.49,1.79-1,3.47-1.64,5-.29.77-.6,1.51-.91,2.21-.15.35-.32.7-.44,1a1.69,1.69,0,0,0-.07,1,1.77,1.77,0,0,0,1.22,1.31c.59.12,1.21.17,1.75.26,1.11.15,2.05.31,2.83.36a12,12,0,0,0,1.8,0l.47,0Z" style="fill:#455a64"></path><path d="M232.73,434.67c-.08,0-.64-1-1.75-2.54a29.82,29.82,0,0,0-5-5.4,29.28,29.28,0,0,0-6.22-4c-1.71-.82-2.83-1.19-2.81-1.27a2.5,2.5,0,0,1,.82.17,16,16,0,0,1,2.14.76,25.23,25.23,0,0,1,6.4,3.91,25.73,25.73,0,0,1,5,5.59,18.24,18.24,0,0,1,1.13,2A2.59,2.59,0,0,1,232.73,434.67Z" style="fill:#455a64"></path><path d="M264.75,419.61a16.53,16.53,0,0,1-1.73,2c-1.08,1.23-2.53,3-4,5s-2.64,4-3.46,5.39a16.83,16.83,0,0,1-1.37,2.29,11.55,11.55,0,0,1,1.05-2.46,42.46,42.46,0,0,1,7.5-10.47A11.72,11.72,0,0,1,264.75,419.61Z" style="fill:#455a64"></path><path d="M214.34,329.82c1.31-2.15,3.08-4,4-6.38a19.85,19.85,0,0,0,1-4.82c1.68-12.84-12.06-5.55,2-44.88h41a71.34,71.34,0,0,1,10.9,33.16c.42,6.07.37,13,4.81,17.12,1.88,1.75,4.51,3,5.34,5.41.7,2.07-.18,4.38.21,6.54.47,2.53,2.56,4.38,4.1,6.44A16.89,16.89,0,0,1,291,352.76c0,1.78-.49,3.74-2,4.71a6.54,6.54,0,0,1-3.15.79c-23.94,1.85-48.13,3.69-71.84-.05a72.46,72.46,0,0,1-2.76-14.32C211,339,211.8,334,214.34,329.82Z" style="fill:#263238"></path><path d="M274,360.93l.1-.17.27-.48a17.11,17.11,0,0,0,.85-2A16.92,16.92,0,0,0,276,355a17.38,17.38,0,0,0,0-4.49,16.26,16.26,0,0,0-1.7-5.16c-.92-1.74-2.19-3.42-3.06-5.43a11.55,11.55,0,0,1-.52-1.57,8.39,8.39,0,0,1-.21-1.67,14.19,14.19,0,0,1,.39-3.46c.25-1.17.58-2.34.85-3.55a16.64,16.64,0,0,0,.41-3.75,25.83,25.83,0,0,0-1.4-7.28c-.72-2.29-1.51-4.46-2.08-6.57a65.72,65.72,0,0,1-2.13-11.46,67.45,67.45,0,0,1-.27-7.86c0-.93.06-1.65.09-2.14l0-.55v-.19s0,.06,0,.19,0,.31,0,.55c0,.49-.08,1.21-.12,2.14a63.43,63.43,0,0,0,2.29,19.37c.58,2.12,1.36,4.3,2.07,6.58a25.68,25.68,0,0,1,1.39,7.22c.07,2.54-.74,4.91-1.25,7.25a14.08,14.08,0,0,0-.39,3.52,8.9,8.9,0,0,0,.22,1.71A11.86,11.86,0,0,0,271,340c.89,2,2.17,3.72,3.08,5.44a15.66,15.66,0,0,1,1.71,5.1,17.25,17.25,0,0,1,.07,4.46,16.39,16.39,0,0,1-.73,3.29,16.11,16.11,0,0,1-.81,2l-.25.49A1.57,1.57,0,0,0,274,360.93Z" style="fill:#455a64"></path><path d="M219.63,283.58c.47-7.19,5.25-16,12.42-15.23l16.58,4.23a12.3,12.3,0,0,1,9.25,11.32c0,.28.05,0,0,.15L254.22,327l-12.45,24.7h0l-11-23.39c0-3.5,0-8.8,0-8.78S221.6,318,219.72,306C218.79,300,219.11,291.57,219.63,283.58Z" style="fill:#ffbf9d"></path><path d="M224,293.67a1.53,1.53,0,0,0,1.48,1.55,1.47,1.47,0,0,0,1.59-1.38,1.53,1.53,0,0,0-1.48-1.55A1.47,1.47,0,0,0,224,293.67Z" style="fill:#263238"></path><path d="M221.43,288.28c.19.2,1.35-.66,3-.65s2.86.84,3,.64-.1-.46-.63-.84a4.21,4.21,0,0,0-2.44-.76,4,4,0,0,0-2.39.77C221.51,287.83,221.33,288.19,221.43,288.28Z" style="fill:#263238"></path><path d="M238.12,293.67a1.53,1.53,0,0,0,1.48,1.55,1.47,1.47,0,0,0,1.59-1.38,1.54,1.54,0,0,0-1.48-1.55A1.47,1.47,0,0,0,238.12,293.67Z" style="fill:#263238"></path><path d="M237.14,288.28c.19.2,1.36-.66,3-.65s2.87.84,3,.64-.1-.46-.63-.84a4.21,4.21,0,0,0-2.44-.76,4,4,0,0,0-2.4.77C237.22,287.83,237.05,288.19,237.14,288.28Z" style="fill:#263238"></path><path d="M232,301.28a10.48,10.48,0,0,0-2.69-.5c-.42,0-.82-.12-.89-.41a2.16,2.16,0,0,1,.28-1.25l1.26-3.22c1.75-4.58,3-8.34,2.83-8.41s-1.75,3.59-3.5,8.16l-1.2,3.24a2.48,2.48,0,0,0-.23,1.66,1.08,1.08,0,0,0,.7.61,2.93,2.93,0,0,0,.71.11A11.33,11.33,0,0,0,232,301.28Z" style="fill:#263238"></path><path d="M246.68,315.24s-3.9,8.24-15.89,7.09v-2.82A30.17,30.17,0,0,0,246.68,315.24Z" style="fill:#ff9a6c"></path><path d="M237.66,282.3c.16.45,1.82.24,3.76.48s3.51.77,3.76.37c.12-.19-.15-.62-.78-1.06a6.38,6.38,0,0,0-2.8-1,6.25,6.25,0,0,0-2.94.34C238,281.74,237.59,282.09,237.66,282.3Z" style="fill:#263238"></path><path d="M222,283.22c.29.38,1.43,0,2.8,0s2.53.26,2.8-.13c.12-.19-.07-.57-.57-.93a4,4,0,0,0-2.28-.62,3.94,3.94,0,0,0-2.24.75C222,282.65,221.84,283,222,283.22Z" style="fill:#263238"></path><path d="M236,304.42a3.2,3.2,0,0,1-1.6,5,1.8,1.8,0,0,1-1.21,0,2.66,2.66,0,0,1-1.28-1.66c-.22-.56-.44-1.12-.67-1.67a.82.82,0,0,1-.06-.59.78.78,0,0,1,.54-.32l4.15-1" style="fill:#ff9a6c"></path><path d="M233.32,309.23a3.73,3.73,0,0,0,1.89-.23,3,3,0,0,0,1.65-1.35,2.15,2.15,0,0,0,.25-1.28,3.72,3.72,0,0,0-.33-1.32A3.29,3.29,0,0,0,236,304l-.11-.1-.13,0c-2.75,1-4.9,1.46-4.87,1.58a17.12,17.12,0,0,0,5-1.11l-.25-.06a3.08,3.08,0,0,1,.66.93,2.69,2.69,0,0,1,.12,2.19,2.73,2.73,0,0,1-1.37,1.23C234.05,309.09,233.31,309.14,233.32,309.23Z" style="fill:#263238"></path><path d="M237.64,261.75c7.27-.66,14.42.57,19.91,5.38,5,4.41,7.41,8.64,8.2,15.49a29.41,29.41,0,0,1-1.26,9.82c-.83,2.21-3.16,7.83-5.33,8.77s-3.46-2.78-5.1-4.48a10.3,10.3,0,0,1-2-3.8c-2.11-5.74-4.58-11.45-8.5-16.13s-9.53-8.24-15.63-8.53l-3.88.13C228.71,263.33,232.84,262.18,237.64,261.75Z" style="fill:#455a64"></path><path d="M224,268.14a19.05,19.05,0,0,1,9.13-4.83,22.81,22.81,0,0,1,9-.47h0c6.66,0,15.22,9.41,16.78,15.89a26.48,26.48,0,0,1,.11,9.48,15.33,15.33,0,0,1-1.13,4.69,5.53,5.53,0,0,1-3.51,3.11,3.44,3.44,0,0,1-4-1.89c-.42-1.13-.08-2.44-.48-3.59-.92-2.62-4.93-2.79-6.23-5.24-.94-1.77-.11-4.12-1.13-5.84s-3.24-2-5.07-2.71a10.25,10.25,0,0,1-6.15-7.05h-.15c-7.26.2-10.08,8-11,11.23A14.59,14.59,0,0,1,224,268.14Z" style="fill:#263238"></path><path d="M254.31,270.76a.67.67,0,0,0-.23,0l-.66.12-1,.17c-.41.07-.87.15-1.38.21-1,.14-2.26.25-3.63.33s-2.88.07-4.46,0-3.08-.23-4.43-.41-2.58-.43-3.58-.67c-.51-.1-1-.22-1.36-.32s-.75-.2-1-.28l-.64-.18a1,1,0,0,0-.23,0l.22.08.63.22,1,.31c.4.11.85.24,1.36.36,1,.26,2.23.49,3.59.71s2.87.35,4.45.43,3.11.05,4.48,0,2.61-.21,3.64-.38c.51-.06,1-.16,1.38-.23s.76-.15,1-.21l.65-.16Z" style="fill:#455a64"></path><path d="M257.45,275a1.28,1.28,0,0,0-.28.07l-.77.23-.56.17c-.21.06-.44.1-.68.16a16.8,16.8,0,0,1-1.65.35l-1,.16c-.33.06-.69.08-1.06.12-.73.09-1.52.1-2.34.12a27.93,27.93,0,0,1-5.36-.53,29.28,29.28,0,0,1-5.14-1.6l-1.1-.5c-.36-.15-.69-.35-1-.52s-.65-.33-.94-.51l-.84-.51c-.54-.31-1-.67-1.4-.94l-.57-.41-.46-.36-.64-.5a1.3,1.3,0,0,0-.23-.16l.21.2.61.52.45.38c.17.14.36.27.56.42.41.29.85.65,1.4,1l.83.53c.29.19.62.34.94.52s.66.38,1,.54l1.11.5a28.27,28.27,0,0,0,5.17,1.64,27.45,27.45,0,0,0,5.4.51,21.72,21.72,0,0,0,2.36-.14c.37,0,.73-.07,1.07-.13l1-.17c.63-.1,1.17-.27,1.66-.39.24-.06.47-.11.67-.18l.56-.19.77-.26Z" style="fill:#455a64"></path><path d="M254.11,295.11c0-.82,1.09-2.7,1.91-2.78,2.17-.22,6.05.15,5.8,5.63-.34,7.49-7.79,5.6-7.79,5.39S254,297.93,254.11,295.11Z" style="fill:#ffbf9d"></path><path d="M256.44,300.61s.13.1.35.21a1.32,1.32,0,0,0,1,.07,3.26,3.26,0,0,0,1.63-2.83,4.45,4.45,0,0,0-.28-1.89,1.55,1.55,0,0,0-.94-1,.67.67,0,0,0-.79.32c-.11.21-.07.36-.11.37s-.15-.13-.08-.44a.88.88,0,0,1,.32-.46,1,1,0,0,1,.73-.16,1.85,1.85,0,0,1,1.31,1.23,4.5,4.5,0,0,1,.36,2.11c-.12,1.5-1,2.88-2.05,3.14a1.38,1.38,0,0,1-1.19-.25C256.45,300.79,256.42,300.63,256.44,300.61Z" style="fill:#ff9a6c"></path><path d="M193.15,367.24c-.11-.58,2.29-15.6,6.69-25.94,1.62-3.79,2.79-6.43,4.44-8.06a19.9,19.9,0,0,1,5.5-3.78l20.8-4.69s-1.43,7.34,12.18,6.45c10.14-.65,11.88-8,11.88-8s20.11,2.26,25,6.72,9.56,30.49,9.56,30.49l-18.9,5.5L268,393.44l6.28,13.69s-18.9,14.23-31.87,13.56-35.61-8.2-35.61-8.2l8.3-17.47-5.31-26Z" style="fill:#ED2222"></path><path d="M204.59,346.52a5.54,5.54,0,0,1,.23.92l.5,2.54c.43,2.14,1,5.09,1.8,8.33s1.51,6.17,2.08,8.27c.27,1,.49,1.84.67,2.5a4.33,4.33,0,0,1,.2.93,5.47,5.47,0,0,1-.34-.89c-.19-.58-.46-1.42-.78-2.47-.63-2.09-1.43-5-2.19-8.25s-1.33-6.22-1.69-8.38c-.18-1.08-.31-1.95-.39-2.56A4.37,4.37,0,0,1,204.59,346.52Z" style="fill:#263238"></path><path d="M271.73,341.85c.38-.05.19,5.58-.25,12.44-.22,3.43-.46,6.54-.65,8.78-.1,1.07-.19,2-.25,2.66a4.37,4.37,0,0,1-.15,1,5.65,5.65,0,0,1,0-1c0-.7.08-1.59.13-2.67.15-2.32.34-5.39.55-8.79s.39-6.47.54-8.79A21.83,21.83,0,0,0,271.73,341.85Z" style="fill:#263238"></path><path d="M256.34,392.45a7,7,0,0,1-1.09.53c-.36.17-.8.36-1.32.55s-1.1.44-1.77.65a43.53,43.53,0,0,1-4.71,1.35,47.29,47.29,0,0,1-11.94,1.18c-1.85-.07-3.51-.21-4.89-.4-.7-.08-1.32-.21-1.86-.3s-1-.19-1.4-.28a8.09,8.09,0,0,1-1.17-.3,6.58,6.58,0,0,1,1.2.16c.38.07.85.15,1.4.22s1.17.18,1.86.24c1.38.17,3,.28,4.86.32a56.91,56.91,0,0,0,6-.24,54.38,54.38,0,0,0,5.89-.93c1.8-.4,3.39-.83,4.71-1.26.67-.2,1.26-.42,1.78-.6s1-.35,1.33-.49A8.14,8.14,0,0,1,256.34,392.45Z" style="fill:#263238"></path><path d="M247.71,329.94l2.34,28.61a1.79,1.79,0,0,1-1.6,1.93l-17.65,1.88a1.8,1.8,0,0,1-2-1.58l-3.46-29.89a1.8,1.8,0,0,1,1.73-2l18.76-.6A1.79,1.79,0,0,1,247.71,329.94Z" style="fill:#263238"></path><path d="M239.64,345.17c.48,0,10.93,1.9,10.93,1.9l13.67,7.83L271.6,366l-7.18,13.39-3.68-10.82a51.25,51.25,0,0,1-6.41-.14c-3.18-.3-13.27-1.08-13.27-1.08l-5.21-2.88s-1.67-2.74-1.67-3.49a1.19,1.19,0,0,1,1.82-1.07c1.06.61,8.35.76,10.17,0,0,0-10.62-.76-12-2.51s-.91-3.1.76-3.1,7.74.91,9.56.76,4.1-.16,4.56-1.07-.92-1.67-.92-1.67l-2-1.51s-7.74-1.37-8.2-3A1.94,1.94,0,0,1,239.64,345.17Z" style="fill:#ffbf9d"></path><path d="M236.1,344.63s-8.88,1.44-9.44,2-11.74,14.26-11.74,14.26l5.7,11.21,10-5.42a15.89,15.89,0,0,1,3.17-1s10.1-1.59,10.75-2.81.28-1.49-.47-1.68a58,58,0,0,0-8.13.75,20.15,20.15,0,0,1-4,0s4.19-1,5.14-1.31,10.33-2.43,10.18-4.11-1.32-2.29-7.19-.7a42.66,42.66,0,0,1-9.91,1.59l13-4.54s5.23-1.68,3.55-3.17-12.9,1.59-12.9,1.59l-4.95,1.87,1.4-3s7-2.09,7.95-2.8c1.12-.87,1.28-1.68.43-2.4A3.4,3.4,0,0,0,236.1,344.63Z" style="fill:#ffbf9d"></path><path d="M194.14,367.35l15.14,1.55,2.13-2.75,3.51-5.26,5.7,11.21s-2.07,6.67-3.18,10.35c-3,9.85-7.82,20.89-13.77,20.33-7.15-.66-12.37-9.13-12.25-14.61C191.53,383.18,194.14,367.35,194.14,367.35Z" style="fill:#ffbf9d"></path><path d="M287.5,361l-12.6,3.2-3.85.84-3.51-5.26L261.84,371s2.07,6.66,3.18,10.34c3,9.86,7.82,20.89,13.77,20.34,7.15-.66,12.37-9.14,12.25-14.62C290.93,382.07,287.5,361,287.5,361Z" style="fill:#ffbf9d"></path><path d="M214.92,360.89l.3-.4.91-1.14c.82-1,2-2.49,3.53-4.37l5.6-6.87.84-1,.45-.52a1.89,1.89,0,0,1,.66-.31c.89-.27,1.82-.46,2.78-.66q2.88-.58,6.08-1.11h0a4.8,4.8,0,0,1,1.65-.08,2.24,2.24,0,0,1,.82.29,1.84,1.84,0,0,1,.62.65,1.13,1.13,0,0,1,.09.92,2.07,2.07,0,0,1-.49.77,3,3,0,0,1-.7.56,7.27,7.27,0,0,1-.81.37c-2.19.86-4.53,1.58-7,2.32l.1-.09c-.43.93-.91,2-1.4,3l-.21-.22,5-1.87h0c2.12-.57,4.31-1.08,6.57-1.5,1.13-.2,2.28-.38,3.46-.47a10.7,10.7,0,0,1,1.79,0,3,3,0,0,1,.91.22,1.21,1.21,0,0,1,.69.74,1.09,1.09,0,0,1-.3,1,3.76,3.76,0,0,1-.73.6,10,10,0,0,1-1.62.85c-1.14.48-2.3.83-3.45,1.25l-7,2.46-3.82,1.33-.06-.35a44.25,44.25,0,0,0,9.18-1.41,40.07,40.07,0,0,1,4.44-1,6.47,6.47,0,0,1,2.28,0,1.62,1.62,0,0,1,1,.62,2,2,0,0,1,.35,1.14.9.9,0,0,1-.29.59,2.16,2.16,0,0,1-.44.37,6.62,6.62,0,0,1-1,.54c-.66.31-1.34.56-2,.8-1.35.47-2.69.85-4,1.21l-2,.53c-.64.17-1.29.4-1.94.55-1.29.33-2.56.63-3.81.92l0-.31a16.42,16.42,0,0,0,4.38-.06c1.44-.2,2.84-.36,4.22-.49.68-.07,1.36-.13,2-.17.34,0,.67,0,1,0a2.46,2.46,0,0,1,.53,0,2.38,2.38,0,0,1,.49.17.73.73,0,0,1,.38.44.93.93,0,0,1,0,.55,2.41,2.41,0,0,1-.18.47l-.11.22a.76.76,0,0,1-.18.22,5.67,5.67,0,0,1-1.75.78,61.93,61.93,0,0,1-6.73,1.5l-1.54.26a12.81,12.81,0,0,0-1.45.3,10.85,10.85,0,0,0-2.59.94l-7.23,3.87-1.92,1-.49.25-.17.08.16-.1.48-.27,1.89-1.05,7.19-3.95a18.21,18.21,0,0,1,5.63-1.56,63.82,63.82,0,0,0,6.7-1.53,5.84,5.84,0,0,0,1.65-.73.88.88,0,0,0,.12-.15l.1-.21a2.41,2.41,0,0,0,.16-.42.51.51,0,0,0-.23-.68,1.81,1.81,0,0,0-.43-.14,2.27,2.27,0,0,0-.46,0c-.32,0-.66,0-1,0-.66,0-1.34.11-2,.18-1.37.13-2.78.29-4.2.5a17,17,0,0,1-4.46.08.15.15,0,0,1-.14-.17.14.14,0,0,1,.12-.14h0c1.24-.3,2.51-.6,3.8-.94.65-.15,1.27-.37,1.93-.55l2-.53c1.32-.36,2.67-.75,4-1.21a20.75,20.75,0,0,0,2-.79,7.46,7.46,0,0,0,.92-.51c.27-.19.58-.45.58-.69a1.69,1.69,0,0,0-.28-.93,1.3,1.3,0,0,0-.82-.48,6.21,6.21,0,0,0-2.15,0,39.19,39.19,0,0,0-4.4,1,44.14,44.14,0,0,1-9.27,1.42.19.19,0,0,1-.19-.18.17.17,0,0,1,.13-.17h0l3.82-1.34,7-2.45c1.15-.42,2.33-.77,3.42-1.24a9.3,9.3,0,0,0,1.57-.81,3.57,3.57,0,0,0,.66-.55.76.76,0,0,0,.23-.65c-.15-.47-.74-.65-1.3-.7a12.49,12.49,0,0,0-1.73,0c-1.15.09-2.29.27-3.42.46-2.24.41-4.43.93-6.54,1.49h0l-4.95,1.87a.16.16,0,0,1-.21-.1.17.17,0,0,1,0-.12c.49-1,1-2.07,1.41-3a.15.15,0,0,1,.1-.09c2.41-.73,4.76-1.44,6.93-2.28a7.82,7.82,0,0,0,.77-.36,2.57,2.57,0,0,0,.64-.51,1.13,1.13,0,0,0,.36-1.35,1.63,1.63,0,0,0-1.23-.79,4.42,4.42,0,0,0-1.54.07h0c-2.13.35-4.17.7-6.08,1.08-.95.2-1.88.39-2.76.64a2.32,2.32,0,0,0-.57.25l-.43.51-.85,1-5.65,6.82-3.59,4.33-.94,1.12C215,360.77,214.92,360.89,214.92,360.89Z" style="fill:#ff9a6c"></path><path d="M215.84,360.53c.1.08-4.07,5.66-9.32,12.47s-9.58,12.27-9.68,12.2,4.07-5.67,9.31-12.48S215.74,360.45,215.84,360.53Z" style="fill:#ff9a6c"></path><path d="M284.48,385.2c-.08,0-.6-1.27-1.69-3.24a67.12,67.12,0,0,0-4.84-7.33c-2.06-2.76-4-5.19-5.38-7-.68-.9-1.21-1.64-1.57-2.17a3.73,3.73,0,0,1-.5-.84,4.41,4.41,0,0,1,.65.73l1.68,2.08c1.42,1.76,3.42,4.15,5.49,6.92a53.14,53.14,0,0,1,4.76,7.46,24.43,24.43,0,0,1,1.1,2.45A4.07,4.07,0,0,1,284.48,385.2Z" style="fill:#ff9a6c"></path></g></svg>