<svg xmlns="http://www.w3.org/2000/svg" viewBox="0 0 500 500"><g id="freepik--background-complete--inject-8"><rect y="382.4" width="500" height="0.25" style="fill:#ebebeb"></rect><rect x="423.67" y="398.49" width="26.23" height="0.25" style="fill:#ebebeb"></rect><rect x="322.53" y="395.24" width="34.23" height="0.25" style="fill:#ebebeb"></rect><rect x="389.33" y="389.21" width="26.44" height="0.25" style="fill:#ebebeb"></rect><rect x="67.7" y="390.89" width="43.19" height="0.25" style="fill:#ebebeb"></rect><rect x="52.46" y="390.89" width="6.33" height="0.25" style="fill:#ebebeb"></rect><rect x="131.47" y="395.11" width="56.2" height="0.25" style="fill:#ebebeb"></rect><path d="M237,337.8H43.91a5.71,5.71,0,0,1-5.7-5.71V60.66A5.71,5.71,0,0,1,43.91,55H237a5.71,5.71,0,0,1,5.71,5.71V332.09A5.71,5.71,0,0,1,237,337.8ZM43.91,55.2a5.46,5.46,0,0,0-5.45,5.46V332.09a5.46,5.46,0,0,0,5.45,5.46H237a5.47,5.47,0,0,0,5.46-5.46V60.66A5.47,5.47,0,0,0,237,55.2Z" style="fill:#ebebeb"></path><path d="M453.31,337.8H260.21a5.72,5.72,0,0,1-5.71-5.71V60.66A5.72,5.72,0,0,1,260.21,55h193.1A5.71,5.71,0,0,1,459,60.66V332.09A5.71,5.71,0,0,1,453.31,337.8ZM260.21,55.2a5.47,5.47,0,0,0-5.46,5.46V332.09a5.47,5.47,0,0,0,5.46,5.46h193.1a5.47,5.47,0,0,0,5.46-5.46V60.66a5.47,5.47,0,0,0-5.46-5.46Z" style="fill:#ebebeb"></path><rect x="66.62" y="83.46" width="271.32" height="155.44" style="fill:#e6e6e6"></rect><rect x="68.51" y="83.46" width="273.47" height="155.44" style="fill:#f0f0f0"></rect><rect x="133.87" y="30.09" width="142.75" height="262.17" transform="translate(366.42 -44.07) rotate(90)" style="fill:#fafafa"></rect><polygon points="106.34 232.55 139.49 89.8 182.96 89.8 149.8 232.55 106.34 232.55" style="fill:#fff"></polygon><polygon points="156.84 232.55 189.99 89.8 209.62 89.8 176.47 232.55 156.84 232.55" style="fill:#fff"></polygon><polygon points="234.72 232.55 267.88 89.8 301.41 89.8 268.25 232.55 234.72 232.55" style="fill:#fff"></polygon><rect x="264.6" y="160.82" width="142.75" height="0.72" transform="translate(497.15 -174.79) rotate(90)" style="fill:#e6e6e6"></rect><rect x="197.1" y="83.46" width="16.3" height="155.44" style="fill:#f0f0f0"></rect><rect x="125.36" y="160.82" width="142.75" height="0.72" transform="translate(357.92 -35.56) rotate(90)" style="fill:#e6e6e6"></rect><rect x="204.96" y="83.46" width="0.57" height="155.44" style="fill:#e6e6e6"></rect><g style="opacity:0.7000000000000001"><rect x="321.4" y="75.22" width="26.08" height="125.16" transform="translate(668.88 275.61) rotate(180)" style="fill:#ebebeb"></rect><rect x="304.51" y="75.22" width="16.89" height="110.55" style="fill:#e0e0e0"></rect><rect x="278.43" y="75.22" width="26.08" height="125.16" transform="translate(582.94 275.61) rotate(180)" style="fill:#ebebeb"></rect><rect x="261.54" y="75.22" width="16.89" height="110.55" style="fill:#e0e0e0"></rect><rect x="235.46" y="75.22" width="26.08" height="125.16" transform="translate(497 275.61) rotate(180)" style="fill:#ebebeb"></rect><rect x="218.57" y="75.22" width="16.89" height="110.55" style="fill:#e0e0e0"></rect><rect x="192.49" y="75.22" width="26.08" height="125.16" transform="translate(411.06 275.61) rotate(180)" style="fill:#ebebeb"></rect><rect x="175.6" y="75.22" width="16.89" height="110.55" style="fill:#e0e0e0"></rect><rect x="149.52" y="75.22" width="26.08" height="125.16" transform="translate(325.12 275.61) rotate(180)" style="fill:#ebebeb"></rect><rect x="132.63" y="75.22" width="16.89" height="110.55" style="fill:#e0e0e0"></rect><rect x="106.55" y="75.22" width="26.08" height="125.16" transform="translate(239.18 275.61) rotate(180)" style="fill:#ebebeb"></rect><rect x="63.58" y="75.22" width="26.08" height="125.16" transform="translate(153.24 275.61) rotate(180)" style="fill:#ebebeb"></rect><rect x="89.66" y="75.22" width="16.89" height="110.55" style="fill:#e0e0e0"></rect></g><rect x="399.64" y="284.33" width="33.55" height="98.07" style="fill:#e6e6e6"></rect><polygon points="424.22 382.4 433.18 382.4 433.18 365.48 414.83 365.48 424.22 382.4" style="fill:#f5f5f5"></polygon><rect x="194.46" y="284.33" width="33.55" height="98.07" style="fill:#e6e6e6"></rect><rect x="220.19" y="284.33" width="212.99" height="92.24" style="fill:#f5f5f5"></rect><polygon points="229.14 382.4 220.19 382.4 220.19 365.48 238.54 365.48 229.14 382.4" style="fill:#f5f5f5"></polygon><rect x="227.14" y="292.42" width="199.1" height="34.14" style="fill:#e6e6e6"></rect><rect x="227.14" y="333.87" width="199.1" height="34.14" style="fill:#e6e6e6"></rect><rect x="396.04" y="128.41" width="51.27" height="8.22" transform="translate(843.34 265.04) rotate(180)" style="fill:#f0f0f0"></rect><rect x="371.59" y="128.41" width="24.45" height="8.22" style="fill:#e6e6e6"></rect><polygon points="396.98 136.63 421.67 136.63 403.67 148.38 396.98 148.38 396.98 136.63" style="fill:#ebebeb"></polygon><polygon points="394.4 136.63 419.09 136.63 401.09 148.38 394.4 148.38 394.4 136.63" style="fill:#e0e0e0"></polygon><rect x="415.3" y="93.2" width="16.05" height="35.2" transform="translate(846.65 221.61) rotate(180)" style="fill:#e6e6e6"></rect><rect x="431.35" y="93.2" width="4.64" height="35.2" style="fill:#f0f0f0"></rect><polygon points="394.62 96.31 415.3 96.31 420.29 128.41 399.6 128.41 394.62 96.31" style="fill:#e6e6e6"></polygon><polygon points="421.28 96.31 415.3 96.31 420.29 128.41 426.27 128.41 421.28 96.31" style="fill:#f0f0f0"></polygon><rect x="385.08" y="92.03" width="23.44" height="36.38" transform="translate(793.6 220.44) rotate(180)" style="fill:#ebebeb"></rect><rect x="408.52" y="92.03" width="6.78" height="36.38" style="fill:#f5f5f5"></rect><path d="M403.08,128.41h-1v-21.9a6.89,6.89,0,1,0-13.78,0v21.9h-1v-21.9a7.89,7.89,0,1,1,15.78,0Z" style="fill:#e0e0e0"></path><rect x="396.04" y="199.71" width="51.27" height="8.22" transform="translate(843.34 407.65) rotate(180)" style="fill:#f0f0f0"></rect><rect x="371.59" y="199.71" width="24.45" height="8.22" style="fill:#e6e6e6"></rect><polygon points="396.98 207.93 421.67 207.93 403.67 219.69 396.98 219.69 396.98 207.93" style="fill:#ebebeb"></polygon><polygon points="394.4 207.93 419.09 207.93 401.09 219.69 394.4 219.69 394.4 207.93" style="fill:#e0e0e0"></polygon><rect x="409.83" y="173.68" width="23.44" height="26.03" transform="translate(843.1 373.39) rotate(180)" style="fill:#e0e0e0"></rect><rect x="433.27" y="173.68" width="6.01" height="26.03" style="fill:#f0f0f0"></rect><rect x="402.58" y="166.32" width="20.09" height="33.39" transform="translate(825.25 366.03) rotate(180)" style="fill:#e0e0e0"></rect><rect x="422.67" y="166.32" width="4.09" height="33.39" style="fill:#ebebeb"></rect><rect x="396.1" y="169.67" width="17.61" height="30.05" transform="translate(809.81 369.38) rotate(180)" style="fill:#e6e6e6"></rect><rect x="413.71" y="169.67" width="5.09" height="30.05" style="fill:#f0f0f0"></rect><rect x="385.08" y="173.68" width="23.44" height="26.03" transform="translate(793.6 373.39) rotate(180)" style="fill:#f0f0f0"></rect><rect x="408.52" y="173.68" width="3.39" height="26.03" style="fill:#fafafa"></rect><path d="M403.08,199.71h-1V177.82a6.89,6.89,0,0,0-13.78,0v21.89h-1V177.82a7.89,7.89,0,0,1,15.78,0Z" style="fill:#e0e0e0"></path><rect x="143.07" y="300.72" width="8.63" height="81.68" style="fill:#f5f5f5"></rect><rect x="147.95" y="300.72" width="7.51" height="81.68" style="fill:#f0f0f0"></rect><rect x="56.06" y="300.72" width="8.63" height="81.68" style="fill:#f5f5f5"></rect><rect x="60.94" y="300.72" width="7.51" height="81.68" style="fill:#f0f0f0"></rect><rect x="175.79" y="300.72" width="8.63" height="81.68" style="fill:#f5f5f5"></rect><rect x="180.66" y="300.72" width="7.51" height="81.68" style="fill:#f0f0f0"></rect><rect x="88.78" y="300.72" width="8.63" height="81.68" style="fill:#f5f5f5"></rect><rect x="56.06" y="292.42" width="132.11" height="10.36" transform="translate(244.24 595.2) rotate(180)" style="fill:#f0f0f0"></rect><rect x="56.06" y="292.42" width="37.59" height="10.36" transform="translate(149.72 595.2) rotate(180)" style="fill:#e6e6e6"></rect><rect x="93.66" y="300.72" width="7.51" height="81.68" style="fill:#f0f0f0"></rect></g><g id="freepik--Shadow--inject-8"><ellipse id="freepik--path--inject-8" cx="250" cy="416.24" rx="193.89" ry="11.32" style="fill:#f5f5f5"></ellipse></g><g id="freepik--Books--inject-8"><path d="M191.56,366.35H391.5a0,0,0,0,1,0,0v50.14a0,0,0,0,1,0,0H191.56a3.88,3.88,0,0,1-3.88-3.88V370.23A3.88,3.88,0,0,1,191.56,366.35Z" transform="translate(579.19 782.84) rotate(180)" style="fill:#407BFF"></path><path d="M191.56,366.35H391.5a0,0,0,0,1,0,0v50.14a0,0,0,0,1,0,0H191.56a3.88,3.88,0,0,1-3.88-3.88V370.23A3.88,3.88,0,0,1,191.56,366.35Z" transform="translate(579.19 782.84) rotate(180)" style="opacity:0.2"></path><rect x="236.7" y="366.35" width="30.59" height="50.14" transform="translate(504 782.84) rotate(180)" style="opacity:0.2"></rect><rect x="280.44" y="366.35" width="15.51" height="50.14" transform="translate(576.39 782.84) rotate(180)" style="opacity:0.2"></rect><path d="M121.46,366.35h66.22a0,0,0,0,1,0,0v50.14a0,0,0,0,1,0,0H121.46a3.9,3.9,0,0,1-3.9-3.9V370.25A3.9,3.9,0,0,1,121.46,366.35Z" style="fill:#407BFF"></path><path d="M117.56,371.74h57.93a5.09,5.09,0,0,1,5.09,5.09V406a5.09,5.09,0,0,1-5.09,5.09H117.56a0,0,0,0,1,0,0V371.74A0,0,0,0,1,117.56,371.74Z" style="fill:#fff;opacity:0.9"></path><circle cx="363.49" cy="391.42" r="14.34" style="opacity:0.2"></circle><path d="M206,330H406a0,0,0,0,1,0,0v36.39a0,0,0,0,1,0,0H206a3.88,3.88,0,0,1-3.88-3.88V333.84A3.88,3.88,0,0,1,206,330Z" transform="translate(608.11 696.31) rotate(180)" style="fill:#263238"></path><path d="M206,330H406a0,0,0,0,1,0,0v36.39a0,0,0,0,1,0,0H206a3.88,3.88,0,0,1-3.88-3.88V333.84A3.88,3.88,0,0,1,206,330Z" transform="translate(608.11 696.31) rotate(180)" style="opacity:0.2"></path><path d="M135.93,330h66.22a0,0,0,0,1,0,0v36.39a0,0,0,0,1,0,0H135.93a3.9,3.9,0,0,1-3.9-3.9V333.86A3.9,3.9,0,0,1,135.93,330Z" style="fill:#263238"></path><path d="M132,335.35H190a5.09,5.09,0,0,1,5.09,5.09v15.45A5.09,5.09,0,0,1,190,361H132a0,0,0,0,1,0,0V335.35A0,0,0,0,1,132,335.35Z" style="fill:#fff;opacity:0.9"></path><rect x="239.83" y="338.58" width="148.28" height="19.16" rx="4.19" transform="translate(627.93 696.31) rotate(180)" style="fill:#407BFF;opacity:0.30000000000000004"></rect><rect x="209.74" y="329.96" width="5.31" height="36.39" transform="translate(424.79 696.31) rotate(180)" style="fill:#407BFF;opacity:0.30000000000000004"></rect><rect x="219.44" y="329.96" width="5.31" height="36.39" transform="translate(444.18 696.31) rotate(180)" style="fill:#407BFF;opacity:0.30000000000000004"></rect><path d="M183.92,292.42H383.85a0,0,0,0,1,0,0V330a0,0,0,0,1,0,0H183.92a3.88,3.88,0,0,1-3.88-3.88V296.3A3.88,3.88,0,0,1,183.92,292.42Z" transform="translate(563.89 622.38) rotate(180)" style="fill:#407BFF"></path><path d="M183.92,292.42H383.85a0,0,0,0,1,0,0V330a0,0,0,0,1,0,0H183.92a3.88,3.88,0,0,1-3.88-3.88V296.3A3.88,3.88,0,0,1,183.92,292.42Z" transform="translate(563.89 622.38) rotate(180)" style="opacity:0.30000000000000004"></path><rect x="229.05" y="292.42" width="69.42" height="37.54" transform="translate(527.53 622.38) rotate(180)" style="fill:#fff;opacity:0.9"></rect><rect x="328.29" y="292.42" width="35.2" height="37.54" transform="translate(691.79 622.38) rotate(180)" style="fill:#fff;opacity:0.9"></rect><path d="M113.82,292.42H180a0,0,0,0,1,0,0V330a0,0,0,0,1,0,0H113.82a3.9,3.9,0,0,1-3.9-3.9V296.32A3.9,3.9,0,0,1,113.82,292.42Z" style="fill:#407BFF"></path><path d="M109.92,297.8h57.93a5.09,5.09,0,0,1,5.09,5.09v16.59a5.09,5.09,0,0,1-5.09,5.09H109.92a0,0,0,0,1,0,0V297.8A0,0,0,0,1,109.92,297.8Z" style="fill:#fff;opacity:0.9"></path><path d="M198.38,267.52H398.31a0,0,0,0,1,0,0v24.9a0,0,0,0,1,0,0H198.38a3.88,3.88,0,0,1-3.88-3.88V271.4A3.88,3.88,0,0,1,198.38,267.52Z" transform="translate(592.81 559.94) rotate(180)" style="fill:#407BFF"></path><path d="M198.38,267.52H398.31a0,0,0,0,1,0,0v24.9a0,0,0,0,1,0,0H198.38a3.88,3.88,0,0,1-3.88-3.88V271.4A3.88,3.88,0,0,1,198.38,267.52Z" transform="translate(592.81 559.94) rotate(180)" style="fill:#fff;opacity:0.30000000000000004"></path><path d="M198.38,267.52H398.31a0,0,0,0,1,0,0v24.9a0,0,0,0,1,0,0H198.38a3.88,3.88,0,0,1-3.88-3.88V271.4A3.88,3.88,0,0,1,198.38,267.52Z" transform="translate(592.81 559.94) rotate(180)" style="opacity:0.2"></path><path d="M128.28,267.52H194.5a0,0,0,0,1,0,0v24.9a0,0,0,0,1,0,0H128.28a3.9,3.9,0,0,1-3.9-3.9v-17.1A3.9,3.9,0,0,1,128.28,267.52Z" style="fill:#407BFF"></path><path d="M128.28,267.52H194.5a0,0,0,0,1,0,0v24.9a0,0,0,0,1,0,0H128.28a3.9,3.9,0,0,1-3.9-3.9v-17.1A3.9,3.9,0,0,1,128.28,267.52Z" style="fill:#fff;opacity:0.30000000000000004"></path><path d="M124.38,272.91H182.3a5.09,5.09,0,0,1,5.09,5.09v4A5.09,5.09,0,0,1,182.3,287H124.38a0,0,0,0,1,0,0V272.91A0,0,0,0,1,124.38,272.91Z" style="fill:#fff;opacity:0.9"></path><rect x="212.4" y="274.08" width="90.62" height="11.77" transform="translate(515.41 559.94) rotate(180)" style="fill:#263238;opacity:0.4"></rect><path d="M228.9,259.28h28.59a0,0,0,0,1,0,0v8.25a0,0,0,0,1,0,0H228.9a.64.64,0,0,1-.64-.64v-7A.64.64,0,0,1,228.9,259.28Z" style="fill:#407BFF"></path><path d="M228.9,259.28h28.59a0,0,0,0,1,0,0v8.25a0,0,0,0,1,0,0H228.9a.64.64,0,0,1-.64-.64v-7A.64.64,0,0,1,228.9,259.28Z" style="opacity:0.2"></path><path d="M258.14,259.28H269a0,0,0,0,1,0,0v8.25a0,0,0,0,1,0,0h-10.9a.64.64,0,0,1-.64-.64v-7A.64.64,0,0,1,258.14,259.28Z" transform="translate(526.53 526.82) rotate(180)" style="fill:#407BFF"></path><path d="M258.66,260.17h9.53a.84.84,0,0,1,.84.84v4.8a.84.84,0,0,1-.84.84h-9.53a0,0,0,0,1,0,0v-6.48A0,0,0,0,1,258.66,260.17Z" transform="translate(527.7 526.82) rotate(180)" style="fill:#fff;opacity:0.9"></path><path d="M226.52,253.29h28.59a0,0,0,0,1,0,0v6a0,0,0,0,1,0,0H226.52a.64.64,0,0,1-.64-.64v-4.71A.64.64,0,0,1,226.52,253.29Z" style="fill:#263238"></path><path d="M226.52,253.29h28.59a0,0,0,0,1,0,0v6a0,0,0,0,1,0,0H226.52a.64.64,0,0,1-.64-.64v-4.71A.64.64,0,0,1,226.52,253.29Z" style="opacity:0.2"></path><path d="M255.76,253.29h10.9a0,0,0,0,1,0,0v6a0,0,0,0,1,0,0h-10.9a.64.64,0,0,1-.64-.64v-4.71A.64.64,0,0,1,255.76,253.29Z" transform="translate(521.77 512.58) rotate(180)" style="fill:#263238"></path><path d="M256.28,254.18h9.53a.84.84,0,0,1,.84.84v2.54a.84.84,0,0,1-.84.84h-9.53a0,0,0,0,1,0,0v-4.22A0,0,0,0,1,256.28,254.18Z" transform="translate(522.94 512.58) rotate(180)" style="fill:#fff;opacity:0.9"></path><path d="M230.16,247.12h28.59a0,0,0,0,1,0,0v6.18a0,0,0,0,1,0,0H230.16a.64.64,0,0,1-.64-.64v-4.9A.64.64,0,0,1,230.16,247.12Z" style="fill:#407BFF"></path><path d="M230.16,247.12h28.59a0,0,0,0,1,0,0v6.18a0,0,0,0,1,0,0H230.16a.64.64,0,0,1-.64-.64v-4.9A.64.64,0,0,1,230.16,247.12Z" style="opacity:0.30000000000000004"></path><path d="M259.39,247.12h10.9a0,0,0,0,1,0,0v6.18a0,0,0,0,1,0,0h-10.9a.64.64,0,0,1-.64-.64v-4.89A.64.64,0,0,1,259.39,247.12Z" transform="translate(529.04 500.41) rotate(180)" style="fill:#407BFF"></path><path d="M259.92,248h9.53a.84.84,0,0,1,.84.84v2.73a.84.84,0,0,1-.84.84h-9.53a0,0,0,0,1,0,0V248A0,0,0,0,1,259.92,248Z" transform="translate(530.21 500.41) rotate(180)" style="fill:#fff;opacity:0.9"></path><path d="M227.78,243h28.59a0,0,0,0,1,0,0v4.1a0,0,0,0,1,0,0H227.78a.64.64,0,0,1-.64-.64v-2.82A.64.64,0,0,1,227.78,243Z" style="fill:#407BFF"></path><path d="M227.78,243h28.59a0,0,0,0,1,0,0v4.1a0,0,0,0,1,0,0H227.78a.64.64,0,0,1-.64-.64v-2.82A.64.64,0,0,1,227.78,243Z" style="fill:#fff;opacity:0.30000000000000004"></path><path d="M227.78,243h28.59a0,0,0,0,1,0,0v4.1a0,0,0,0,1,0,0H227.78a.64.64,0,0,1-.64-.64v-2.82A.64.64,0,0,1,227.78,243Z" style="opacity:0.2"></path><path d="M257,243h10.9a0,0,0,0,1,0,0v4.1a0,0,0,0,1,0,0H257a.64.64,0,0,1-.64-.64v-2.81A.64.64,0,0,1,257,243Z" transform="translate(524.28 490.14) rotate(180)" style="fill:#407BFF"></path><path d="M257,243h10.9a0,0,0,0,1,0,0v4.1a0,0,0,0,1,0,0H257a.64.64,0,0,1-.64-.64v-2.81A.64.64,0,0,1,257,243Z" transform="translate(524.28 490.14) rotate(180)" style="fill:#fff;opacity:0.30000000000000004"></path><path d="M257.54,243.91h9.53a.84.84,0,0,1,.84.84v.65a.84.84,0,0,1-.84.84h-9.53a0,0,0,0,1,0,0v-2.32A0,0,0,0,1,257.54,243.91Z" transform="translate(525.45 490.14) rotate(180)" style="fill:#fff;opacity:0.9"></path><path d="M226.52,237h28.59a0,0,0,0,1,0,0v6a0,0,0,0,1,0,0H226.52a.64.64,0,0,1-.64-.64v-4.71A.64.64,0,0,1,226.52,237Z" style="fill:#263238"></path><path d="M226.52,237h28.59a0,0,0,0,1,0,0v6a0,0,0,0,1,0,0H226.52a.64.64,0,0,1-.64-.64v-4.71A.64.64,0,0,1,226.52,237Z" style="opacity:0.2"></path><path d="M255.76,237H263a0,0,0,0,1,0,0v6a0,0,0,0,1,0,0h-7.27a.64.64,0,0,1-.64-.64v-4.71A.64.64,0,0,1,255.76,237Z" transform="translate(518.14 480.05) rotate(180)" style="fill:#263238"></path><path d="M256.28,237.92h5.9a.84.84,0,0,1,.84.84v2.54a.84.84,0,0,1-.84.84h-5.9a0,0,0,0,1,0,0v-4.22A0,0,0,0,1,256.28,237.92Z" transform="translate(519.31 480.05) rotate(180)" style="fill:#fff;opacity:0.9"></path><path d="M230.16,230.85h28.59a0,0,0,0,1,0,0V237a0,0,0,0,1,0,0H230.16a.64.64,0,0,1-.64-.64v-4.9A.64.64,0,0,1,230.16,230.85Z" style="fill:#407BFF"></path><path d="M230.16,230.85h28.59a0,0,0,0,1,0,0V237a0,0,0,0,1,0,0H230.16a.64.64,0,0,1-.64-.64v-4.9A.64.64,0,0,1,230.16,230.85Z" style="opacity:0.30000000000000004"></path><path d="M259.39,230.85h7.27a0,0,0,0,1,0,0V237a0,0,0,0,1,0,0h-7.27a.64.64,0,0,1-.64-.64v-4.89A.64.64,0,0,1,259.39,230.85Z" transform="translate(525.41 467.88) rotate(180)" style="fill:#407BFF"></path><path d="M259.92,231.74h5.9a.84.84,0,0,1,.84.84v2.73a.84.84,0,0,1-.84.84h-5.9a0,0,0,0,1,0,0v-4.41A0,0,0,0,1,259.92,231.74Z" transform="translate(526.58 467.88) rotate(180)" style="fill:#fff;opacity:0.9"></path><path d="M227.78,226.76h28.59a0,0,0,0,1,0,0v4.1a0,0,0,0,1,0,0H227.78a.64.64,0,0,1-.64-.64v-2.82A.64.64,0,0,1,227.78,226.76Z" style="fill:#407BFF"></path><path d="M227.78,226.76h28.59a0,0,0,0,1,0,0v4.1a0,0,0,0,1,0,0H227.78a.64.64,0,0,1-.64-.64v-2.82A.64.64,0,0,1,227.78,226.76Z" style="fill:#fff;opacity:0.30000000000000004"></path><path d="M227.78,226.76h28.59a0,0,0,0,1,0,0v4.1a0,0,0,0,1,0,0H227.78a.64.64,0,0,1-.64-.64v-2.82A.64.64,0,0,1,227.78,226.76Z" style="opacity:0.2"></path><path d="M257,226.76h7.27a0,0,0,0,1,0,0v4.1a0,0,0,0,1,0,0H257a.64.64,0,0,1-.64-.64V227.4A.64.64,0,0,1,257,226.76Z" transform="translate(520.65 457.61) rotate(180)" style="fill:#407BFF"></path><path d="M257,226.76h7.27a0,0,0,0,1,0,0v4.1a0,0,0,0,1,0,0H257a.64.64,0,0,1-.64-.64V227.4A.64.64,0,0,1,257,226.76Z" transform="translate(520.65 457.61) rotate(180)" style="fill:#fff;opacity:0.30000000000000004"></path><path d="M257.54,227.64h5.9a.84.84,0,0,1,.84.84v.65a.84.84,0,0,1-.84.84h-5.9a0,0,0,0,1,0,0v-2.32A0,0,0,0,1,257.54,227.64Z" transform="translate(521.82 457.61) rotate(180)" style="fill:#fff;opacity:0.9"></path></g><g id="freepik--Character--inject-8"><polygon points="106.75 336.5 100.15 333.19 105.51 316.79 112.11 320.1 106.75 336.5" style="fill:#ffc3bd"></polygon><path d="M100.73,330.61l8.1,1.7a.54.54,0,0,1,.44.61l-1,6.49a1.3,1.3,0,0,1-1.53,1c-2.81-.64-4.13-1.09-7.69-1.84-2.19-.46-9.76-2-12.68-3s-1.85-3.87-.52-3.7c6,.74,11.13.07,13.5-1.1A2.1,2.1,0,0,1,100.73,330.61Z" style="fill:#263238"></path><polygon points="112.11 320.11 105.51 316.8 102.44 326.21 109.35 328.56 112.11 320.11" style="opacity:0.2"></polygon><path d="M179,237.43s-56.59,5.48-61.32,26.09c-6.81,29.61-16,57.75-16,57.75l12.66,2.23c1.94-8.43,16.37-38,23.14-57.93,15.33-2.29,56.31,6.41,62.45-5.25a44.31,44.31,0,0,0,4.89-19.11Z" style="fill:#407BFF"></path><path d="M179,237.43s-56.59,5.48-61.32,26.09c-6.81,29.61-16,57.75-16,57.75l12.66,2.23c1.94-8.43,16.37-38,23.14-57.93,15.33-2.29,56.31,6.41,62.45-5.25a44.31,44.31,0,0,0,4.89-19.11Z" style="opacity:0.30000000000000004"></path><polygon points="115.09 327.98 100.29 322.62 101 316.67 116.49 320.75 115.09 327.98" style="fill:#407BFF"></polygon><path d="M97.91,331.33a8.61,8.61,0,0,0,2,.14.18.18,0,0,0,.16-.1.19.19,0,0,0,0-.18c-.2-.21-2-2-2.9-1.88a.67.67,0,0,0-.5.4.94.94,0,0,0,0,1A2,2,0,0,0,97.91,331.33Zm1.56-.2c-1.34,0-2.28-.25-2.55-.66a.6.6,0,0,1,0-.62.29.29,0,0,1,.23-.2C97.68,329.56,98.75,330.42,99.47,331.13Z" style="fill:#407BFF"></path><path d="M99.85,331.47h.08a.17.17,0,0,0,.11-.12c0-.08.63-2.13,0-3a.85.85,0,0,0-.67-.38.64.64,0,0,0-.71.38c-.33.75.43,2.48,1.05,3.06Zm-.38-3.13a.51.51,0,0,1,.33.22,3.82,3.82,0,0,1,0,2.39A3.44,3.44,0,0,1,99,328.5c0-.09.12-.19.37-.17Z" style="fill:#407BFF"></path><path d="M185.1,185.62c-.34,3.72-.88,7.22-1.46,10.81s-1.34,7.13-2.27,10.7a76.32,76.32,0,0,1-3.52,10.73,35.07,35.07,0,0,1-2.81,5.47,19.69,19.69,0,0,1-2.11,2.79,13.77,13.77,0,0,1-3.27,2.7l-.42.24-.23.08a11.49,11.49,0,0,1-6.73.22,20.47,20.47,0,0,1-4.72-1.86,30.8,30.8,0,0,1-3.86-2.5c-.6-.45-1.16-.94-1.72-1.43a21.7,21.7,0,0,1-1.66-1.56l3.14-4.55c1.17.38,2.43.87,3.64,1.23s2.41.75,3.56,1a15,15,0,0,0,3.14.44c.89,0,1.52-.24,1.36-.31l-.65.32a8.05,8.05,0,0,0,1.65-2.22,29.25,29.25,0,0,0,1.79-4,81.14,81.14,0,0,0,2.67-9.4c.73-3.27,1.36-6.6,1.91-10s1-6.8,1.46-10.06Z" style="fill:#ffc3bd"></path><path d="M175.22,180.14c-6.88,6-6.5,20.6-6.5,20.6l18.18,6.56c3.85-6,5.74-17.46,5.4-22.38C191.77,177.36,183.38,173,175.22,180.14Z" style="fill:#263238"></path><path d="M192.31,185.2c-3.27-1.57-7.74-1.07-12.16,2.79-4,3.49-5.55,9.92-6.13,14.67l12.88,4.64C190.68,201.4,192.57,190.25,192.31,185.2Z" style="opacity:0.2"></path><polygon points="80.67 319.02 78.47 311.98 93.77 303.68 95.96 310.72 80.67 319.02" style="fill:#ffc3bd"></polygon><path d="M79,311.32l5.54,6.15a.52.52,0,0,1,0,.74l-4.6,4.69a1.3,1.3,0,0,1-1.84-.08c-1.89-2.17-2.69-3.31-5.13-6-1.5-1.66-6.77-7.15-8.84-9.45s.26-4.28,1.34-3.49c4.86,3.53,9.73,6.36,12.34,6.81A2.14,2.14,0,0,1,79,311.32Z" style="fill:#263238"></path><polygon points="95.96 310.72 93.77 303.68 82.61 309.74 87.26 315.45 95.96 310.72" style="opacity:0.2"></polygon><path d="M191.8,239.5S153,244.7,145,255.32c-13.93,18.49-58,49-58,49l4,12.89s60.06-25.33,70.74-46.51c19.62-1.51,51.54,4.95,56.57-7.23,3.35-8.11,1.71-20.22,1.71-20.22Z" style="fill:#407BFF"></path><path d="M191.8,239.5S153,244.7,145,255.32c-13.93,18.49-58,49-58,49l4,12.89s60.06-25.33,70.74-46.51c19.62-1.51,51.54,4.95,56.57-7.23,3.35-8.11,1.71-20.22,1.71-20.22Z" style="opacity:0.2"></path><polygon points="91.78 319.08 83.24 305.31 88.7 300.82 96.92 315.64 91.78 319.08" style="fill:#407BFF"></polygon><path d="M76.24,310.24a9.35,9.35,0,0,0,1.51,1.28.17.17,0,0,0,.19,0,.16.16,0,0,0,.08-.17c0-.28-.37-2.79-1.24-3.22a.65.65,0,0,0-.63,0,1,1,0,0,0-.55.78A2,2,0,0,0,76.24,310.24Zm1.38.77c-1.08-.81-1.7-1.55-1.67-2a.62.62,0,0,1,.37-.5.31.31,0,0,1,.31,0C77.09,308.68,77.45,310,77.62,311Z" style="fill:#407BFF"></path><path d="M77.72,311.5l.07,0a.13.13,0,0,0,.16,0c.08,0,1.76-1.35,1.8-2.38a.92.92,0,0,0-.31-.71.68.68,0,0,0-.81-.11c-.71.41-1.11,2.26-.95,3.1A.2.2,0,0,0,77.72,311.5Zm1.55-2.75a.51.51,0,0,1,.13.37c0,.62-.88,1.48-1.41,1.93a3.47,3.47,0,0,1,.81-2.43.33.33,0,0,1,.41.07Z" style="fill:#407BFF"></path><path d="M155.39,218.84l-5.88-5.68-4.08,8s7.14,3.91,8.93,2.12Z" style="fill:#ffc3bd"></path><polygon points="141.7 213.1 140.64 219.66 145.43 221.11 149.51 213.16 141.7 213.1" style="fill:#ffc3bd"></polygon><path d="M219.62,175.2c-.74-1.95-2.06-3.88-4.15-3.85-.43,0-3,0-3.46.06-2.4.06-5.4.22-8.3.59a145.81,145.81,0,0,0-16.51,2.87c-2.5.68-4.9,1.53-6.82,2.26l-.07,0a5.37,5.37,0,0,0-3.39,5.53c1,10.57,3.48,39.92,2,55.12l41,5.4c2.46-7.82,3.44-25.73,3.46-40.33C223.46,194.08,222.67,183.17,219.62,175.2Z" style="fill:#263238"></path><path d="M223.24,195.34l-.81.06-5.2,4.5-5.38,18.53-18.48,3.23c4.49,2.27,17.55,2.73,25.27.68a6.15,6.15,0,0,0,4.52-5.72c.19-4.63.28-9.33.28-13.74C223.44,200.49,223.39,197.94,223.24,195.34Z" style="opacity:0.2"></path><path d="M156.89,201.39s3.61-2,10.38-.06A17.46,17.46,0,0,0,178.8,201l2.53,4.74-23,.8Z" style="fill:#407BFF"></path><path d="M156.89,201.39s3.61-2,10.38-.06A17.46,17.46,0,0,0,178.8,201l2.53,4.74-23,.8Z" style="fill:#fff;opacity:0.8"></path><path d="M156.89,201.39s-.15-1.45-4.52-1.6c-8.79-.29-12.5-2.54-12.5-2.54l-.36,2.27,18.81,7Z" style="fill:#407BFF"></path><path d="M156.89,201.39s-.15-1.45-4.52-1.6c-8.79-.29-12.5-2.54-12.5-2.54l-.36,2.27,18.81,7Z" style="fill:#fff;opacity:0.8"></path><path d="M164.28,235.13,148,230.49a1.31,1.31,0,0,1-.86-.87l-8.33-30.16a.79.79,0,0,1,1-1l15.51,4.43Z" style="fill:#407BFF"></path><path d="M189.61,236.54l-21.4-1.19-8.91-32.26L181,204.3a1.21,1.21,0,0,1,1.06.88l8.38,30.32A.77.77,0,0,1,189.61,236.54Z" style="fill:#407BFF"></path><polygon points="164.28 235.13 168.21 235.35 159.3 203.09 155.37 202.87 164.28 235.13" style="fill:#407BFF"></polygon><polygon points="164.28 235.13 168.21 235.35 159.3 203.09 155.37 202.87 164.28 235.13" style="opacity:0.30000000000000004"></polygon><path d="M221.63,182.53c.21,1.44.35,2.66.45,4s.17,2.58.23,3.88c.09,2.58.07,5.17-.09,7.77a59.5,59.5,0,0,1-2.89,15.69c0,.09-.18.52-.3.84a10.3,10.3,0,0,1-.47.94,9.54,9.54,0,0,1-1.12,1.57,10.65,10.65,0,0,1-2.47,2.05,18,18,0,0,1-4.54,1.92,38.28,38.28,0,0,1-8.12,1.23,74.74,74.74,0,0,1-15.28-.85l.26-5.53a139.57,139.57,0,0,0,14-2,35.18,35.18,0,0,0,6.2-1.77,8.37,8.37,0,0,0,2.08-1.15c.21-.18.31-.33.29-.35s-.05,0-.08.07a1,1,0,0,0-.08.11s-.06.18,0,0a57.06,57.06,0,0,0,1.1-6.45c.21-2.22.36-4.47.39-6.75s0-4.58-.1-6.88c-.05-1.15-.11-2.3-.2-3.44l-.14-1.71-.15-1.6Z" style="fill:#ffc3bd"></path><path d="M221.63,173.69c-4.86-3.71-11.57-3.6-14.32,6.17-1.8,6.4-.84,19.28-.84,19.28l19.41-.39C228.05,188.51,226.55,177.45,221.63,173.69Z" style="fill:#263238"></path><path d="M201.8,155.68l-4.08,4.79L192.16,167a19.82,19.82,0,0,1,.87,2.56c1,3.46-2.15,4.16-5,5.91,0,0-4.27,5.65,6,4s11.73-7,11.73-7C201.15,169.34,201.48,161.66,201.8,155.68Z" style="fill:#ffc3bd"></path><path d="M197.12,178.8a25.65,25.65,0,0,1-3.15.69,17.18,17.18,0,0,1-4.16.25l-.24,1.19c-.37.26-.46,1.65,1.88,3.3C193.92,183.72,197.75,181.61,197.12,178.8Z" style="fill:#407BFF"></path><path d="M203.94,170.75s-1.94,5.19-9,7.09c1,2.75-.64,5.88-.64,5.88s9.85-3.37,11.9-6.74,1.17-5.34,1.17-5.34A8.51,8.51,0,0,0,203.94,170.75Z" style="fill:#263238"></path><path d="M190,183.49s.07-4.3,1.33-5.74c-.66-1.94-.31-3,.71-4.69a8.49,8.49,0,0,0-5.31,3.46C185.38,178.77,186.32,183.55,190,183.49Z" style="fill:#263238"></path><path d="M192.16,167a19.82,19.82,0,0,1,.87,2.56c2.34-.91,5.13-4.06,5-6.6a11.54,11.54,0,0,0-.35-2.49Z" style="opacity:0.2"></path><path d="M178.61,144.2c-1.93,4.05-.27,13.67,8.88,9.84S181.75,137.63,178.61,144.2Z" style="fill:#263238"></path><path d="M198.69,152.61c-.84,1.75-.12,5.91,3.83,4.26S200,149.77,198.69,152.61Z" style="fill:#263238"></path><path d="M199.8,155.41c-1.28,1.46-1.71,5.66,2.55,5.13S201.87,153,199.8,155.41Z" style="fill:#263238"></path><path d="M200.8,144.49c1.66,7.75,3,12.18.31,17.29a10.3,10.3,0,0,1-18.24.12c-3.52-6.32-5.65-17.93.87-23.29A10.43,10.43,0,0,1,200.8,144.49Z" style="fill:#ffc3bd"></path><path d="M199.42,135.48c-1.58-6.88-10.8-4.49-15.5-.33s-5.91,7.43-9.87,9.89c7.31,1,17.66-1.9,19.6-4.36a7.72,7.72,0,0,0,3.16,6.26,51,51,0,0,0,0,6.47l3.34-1.7,3.89-1.56C209.78,140.45,206.39,134.46,199.42,135.48Z" style="fill:#263238"></path><path d="M191.09,149.82a.26.26,0,0,1-.26-.22.26.26,0,0,1,.21-.31l10.84-1.85a.27.27,0,0,1,.31.22.26.26,0,0,1-.22.3l-10.84,1.85Z" style="fill:#fff"></path><path d="M189.64,156.25h0c-2,0-4.2-2.15-4.91-4.76a4.43,4.43,0,0,1,.45-3.89,2.41,2.41,0,0,1,2-1h0c2,0,4.21,2.15,4.92,4.76h0a4.49,4.49,0,0,1-.46,3.9A2.4,2.4,0,0,1,189.64,156.25Zm-2.51-9.08a1.9,1.9,0,0,0-1.55.75,4,4,0,0,0-.36,3.43c.65,2.4,2.63,4.36,4.41,4.37a1.8,1.8,0,0,0,1.56-.75,4,4,0,0,0,.37-3.43c-.65-2.4-2.63-4.36-4.41-4.37Z" style="fill:#fff"></path><path d="M183.45,153a.32.32,0,0,1-.14,0,.26.26,0,0,1-.09-.37,2,2,0,0,1,2-.73.28.28,0,0,1,.2.32.27.27,0,0,1-.32.2s-1-.22-1.47.49A.25.25,0,0,1,183.45,153Z" style="fill:#fff"></path><path d="M205.45,150.42a8.37,8.37,0,0,1-3.29,4.91c-2.17,1.48-3.87-.36-3.78-2.94.08-2.32,1.3-5.88,3.73-6.33S206,148,205.45,150.42Z" style="fill:#ffc3bd"></path><path d="M188.44,151c.29.57.22,1.2-.15,1.4s-.9-.1-1.19-.68-.21-1.2.15-1.4S188.15,150.42,188.44,151Z" style="fill:#263238"></path><path d="M182.1,153.6c.26.59.16,1.21-.22,1.39s-.9-.15-1.15-.74-.15-1.22.23-1.39S181.85,153,182.1,153.6Z" style="fill:#263238"></path><path d="M178.9,150.07a.38.38,0,0,0,.26-.25,3.15,3.15,0,0,1,1.88-2,.38.38,0,0,0,.25-.47.36.36,0,0,0-.46-.25h0a3.85,3.85,0,0,0-2.39,2.54.36.36,0,0,0,.24.47A.34.34,0,0,0,178.9,150.07Z" style="fill:#263238"></path><path d="M181.93,158.31h0c-1.82,0-3.83-2-4.48-4.34a4.08,4.08,0,0,1,.42-3.56,2.19,2.19,0,0,1,1.8-.87h0c1.83,0,3.84,2,4.49,4.34h0a4.08,4.08,0,0,1-.42,3.55A2.19,2.19,0,0,1,181.93,158.31Zm-2.28-8.25a1.67,1.67,0,0,0-1.38.68,3.56,3.56,0,0,0-.33,3.09c.59,2.17,2.37,3.94,4,3.95h0a1.69,1.69,0,0,0,1.39-.67,3.6,3.6,0,0,0,.33-3.09h0c-.59-2.17-2.38-3.94-4-4Z" style="fill:#fff"></path><path d="M184.2,152.68a20.37,20.37,0,0,1-.88,5.36,3.12,3.12,0,0,0,2.6-.49Z" style="fill:#ed847e"></path><path d="M187.22,159.85a5.53,5.53,0,0,0,3.38-2.72.19.19,0,0,0-.1-.25.2.2,0,0,0-.25.09,5.27,5.27,0,0,1-3.82,2.68.2.2,0,0,0-.16.22.19.19,0,0,0,.22.15A5.2,5.2,0,0,0,187.22,159.85Z" style="fill:#263238"></path><path d="M189.36,146.32a.33.33,0,0,0,.13-.13.38.38,0,0,0-.13-.52,3.64,3.64,0,0,0-3.4-.21.37.37,0,0,0-.16.51.38.38,0,0,0,.51.16,2.88,2.88,0,0,1,2.67.19A.35.35,0,0,0,189.36,146.32Z" style="fill:#263238"></path><path d="M189.27,216.35,183,213.69l.21,8s6.21,2.51,7.24-.8Z" style="fill:#ffc3bd"></path><polygon points="175.21 215.48 176.59 221.17 183.22 221.66 183.01 213.69 175.21 215.48" style="fill:#ffc3bd"></polygon></g></svg>