<?xml version="1.0" standalone="no"?>
<!DOCTYPE svg PUBLIC "-//W3C//DTD SVG 20010904//EN"
 "http://www.w3.org/TR/2001/REC-SVG-20010904/DTD/svg10.dtd">
<svg version="1.0" xmlns="http://www.w3.org/2000/svg"
 width="973.000000pt" height="1280.000000pt" viewBox="0 0 973.000000 1280.000000"
 preserveAspectRatio="xMidYMid meet">
<metadata>
Created by potrace 1.15, written by Peter Selinger 2001-2017
</metadata>
<g transform="translate(0.000000,1280.000000) scale(0.100000,-0.100000)"
fill="#ff2424" stroke="none">
<path d="M4605 12794 c-503 -38 -801 -110 -1130 -274 -202 -101 -318 -183
-470 -335 -134 -133 -206 -224 -297 -377 -278 -466 -418 -1162 -418 -2079 0
-777 185 -1435 567 -2016 113 -173 222 -304 387 -468 373 -371 784 -590 1273
-676 185 -33 511 -33 696 0 471 83 880 295 1244 645 525 505 861 1211 958
2016 35 286 30 828 -11 1245 -63 646 -230 1148 -500 1513 -82 109 -282 305
-394 385 -114 81 -376 213 -519 262 -197 67 -405 112 -651 140 -128 15 -621
28 -735 19z"/>
<path d="M3310 6274 c-833 -164 -1370 -324 -1793 -535 -211 -105 -355 -195
-509 -317 -362 -288 -614 -686 -763 -1202 -153 -531 -220 -1200 -241 -2415
l-6 -360 31 -46 c222 -329 729 -666 1351 -897 720 -267 1539 -415 2680 -484
273 -16 1339 -16 1610 0 1140 69 1962 218 2680 484 621 231 1130 569 1351 897
l31 46 -6 350 c-15 827 -47 1352 -107 1775 -219 1539 -876 2175 -2680 2594
-171 39 -399 87 -558 117 l-104 19 -84 -80 c-239 -227 -599 -383 -1013 -441
-124 -18 -505 -18 -630 0 -410 56 -782 218 -1016 443 -45 43 -85 78 -90 77 -5
0 -65 -12 -134 -25z"/>
</g>
</svg>
